<svg id="Layer_1" height="512" viewBox="0 0 128 128" width="512" xmlns="http://www.w3.org/2000/svg" data-name="Layer 1"><path d="m113.206 32.434h-98.412a1.749 1.749 0 0 0 -1.75 1.75v37.706a1.75 1.75 0 0 0 1.75 1.75h98.412a1.75 1.75 0 0 0 1.75-1.75v-37.706a1.749 1.749 0 0 0 -1.75-1.75zm-8.081 37.706h-82.25v-15.786h82.25zm6.331 0h-2.831v-17.54a1.749 1.749 0 0 0 -1.75-1.75h-85.75a1.749 1.749 0 0 0 -1.75 1.75v17.54h-2.831v-34.206h94.912z"/><path d="m27.874 60.7h72.252a1.75 1.75 0 0 0 0-3.5h-72.252a1.75 1.75 0 0 0 0 3.5z"/><path d="m27.874 67.195h72.252a1.75 1.75 0 1 0 0-3.5h-72.252a1.75 1.75 0 1 0 0 3.5z"/><path d="m83.167 48.029h23.708a1.749 1.749 0 0 0 1.75-1.75v-6a1.75 1.75 0 0 0 -1.75-1.75h-23.708a1.75 1.75 0 0 0 -1.75 1.75v6a1.749 1.749 0 0 0 1.75 1.75zm1.75-6h20.208v2.5h-20.208z"/><path d="m29.7 85.169c-.743-.568-1.593-1.431-1.424-2.312a2.036 2.036 0 0 1 1.278-1.386 1.75 1.75 0 1 0 -.954-3.371 5.488 5.488 0 0 0 -3.763 4.1c-.228 1.191-.175 3.521 2.734 5.748a2 2 0 0 1 .884 2.038 2.9 2.9 0 0 1 -1.969 2.156 1.749 1.749 0 0 0 .514 3.424 1.723 1.723 0 0 0 .508-.075 6.353 6.353 0 0 0 4.4-4.879 5.471 5.471 0 0 0 -2.208-5.443z"/><path d="m43.953 85.169c-.743-.568-1.593-1.431-1.424-2.312a2.036 2.036 0 0 1 1.278-1.386 1.75 1.75 0 0 0 -.953-3.367 5.488 5.488 0 0 0 -3.763 4.1c-.228 1.191-.175 3.521 2.734 5.748a2 2 0 0 1 .884 2.038 2.9 2.9 0 0 1 -1.969 2.156 1.749 1.749 0 0 0 .506 3.424 1.723 1.723 0 0 0 .508-.075 6.353 6.353 0 0 0 4.4-4.879 5.471 5.471 0 0 0 -2.201-5.447z"/><path d="m58.2 85.169c-.743-.568-1.593-1.431-1.424-2.312a2.036 2.036 0 0 1 1.278-1.386 1.75 1.75 0 0 0 -.954-3.371 5.488 5.488 0 0 0 -3.763 4.1c-.228 1.191-.175 3.521 2.734 5.748a2 2 0 0 1 .884 2.038 2.9 2.9 0 0 1 -1.969 2.156 1.749 1.749 0 0 0 .506 3.424 1.723 1.723 0 0 0 .508-.075 6.353 6.353 0 0 0 4.4-4.879 5.471 5.471 0 0 0 -2.2-5.443z"/><path d="m72.453 85.169c-.743-.568-1.593-1.431-1.424-2.312a2.036 2.036 0 0 1 1.278-1.386 1.75 1.75 0 0 0 -.953-3.367 5.488 5.488 0 0 0 -3.763 4.1c-.228 1.191-.175 3.521 2.734 5.748a2 2 0 0 1 .884 2.038 2.9 2.9 0 0 1 -1.969 2.156 1.749 1.749 0 0 0 .506 3.424 1.723 1.723 0 0 0 .508-.075 6.353 6.353 0 0 0 4.4-4.879 5.471 5.471 0 0 0 -2.201-5.447z"/><path d="m86.7 85.169c-.743-.568-1.593-1.431-1.424-2.312a2.036 2.036 0 0 1 1.278-1.386 1.75 1.75 0 0 0 -.954-3.371 5.488 5.488 0 0 0 -3.763 4.1c-.228 1.191-.175 3.521 2.734 5.748a2 2 0 0 1 .884 2.038 2.9 2.9 0 0 1 -1.969 2.156 1.749 1.749 0 0 0 .514 3.424 1.723 1.723 0 0 0 .508-.075 6.353 6.353 0 0 0 4.4-4.879 5.471 5.471 0 0 0 -2.208-5.443z"/><path d="m100.953 85.169c-.743-.568-1.593-1.431-1.424-2.312a2.036 2.036 0 0 1 1.278-1.386 1.75 1.75 0 0 0 -.953-3.367 5.488 5.488 0 0 0 -3.763 4.1c-.228 1.191-.175 3.521 2.734 5.748a2 2 0 0 1 .884 2.038 2.9 2.9 0 0 1 -1.969 2.156 1.749 1.749 0 0 0 .506 3.424 1.723 1.723 0 0 0 .508-.075 6.353 6.353 0 0 0 4.4-4.879 5.471 5.471 0 0 0 -2.201-5.447z"/></svg>