<?xml version="1.0"?>
<svg xmlns="http://www.w3.org/2000/svg" id="Layer_1" data-name="Layer 1" viewBox="0 0 128 128" width="512" height="512"><title>ALARM CLOCK</title><path d="M108.811,102.181A16.3,16.3,0,0,0,94.065,91,41.294,41.294,0,0,0,98.7,40.147l1.683-1.683,4.12,4.12a1.749,1.749,0,0,0,2.475,0L111,38.562a13.5,13.5,0,1,0-19.1-19.1l-4.021,4.022a1.748,1.748,0,0,0,0,2.474L92,30.082l-1.127,1.126a41.235,41.235,0,0,0-53.75,0L36,30.082l4.121-4.121a1.75,1.75,0,0,0,0-2.474L36.1,19.465A13.5,13.5,0,0,0,17,38.562l4.022,4.022a1.749,1.749,0,0,0,2.475,0l4.12-4.12L29.3,40.147A41.294,41.294,0,0,0,33.935,91a16.3,16.3,0,0,0-14.746,11.179l-2.647,8.01a1.75,1.75,0,0,0,1.662,2.3H34.7a1.749,1.749,0,0,0,1.75-1.75,5.318,5.318,0,0,1,5.311-5.311H86.239a5.317,5.317,0,0,1,5.311,5.311,1.749,1.749,0,0,0,1.75,1.75h16.5a1.75,1.75,0,0,0,1.661-2.3ZM94.378,21.94a10,10,0,1,1,14.148,14.147l-2.785,2.785L95.714,28.845h0l-4.119-4.12Zm3.531,14.049-1.266,1.266a41.919,41.919,0,0,0-3.2-3.662l1.037-1.037Zm-75.65,2.883-2.785-2.785A10,10,0,0,1,33.622,21.939l2.784,2.785Zm7.832-2.883,3.433-3.433,1.037,1.037a41.786,41.786,0,0,0-3.2,3.663ZM64,24.747A37.848,37.848,0,0,1,89.054,90.971H78.491a32.029,32.029,0,0,0,7.89-5.709.979.979,0,0,0,.277-.277,31.8,31.8,0,0,0,0-44.759,1.661,1.661,0,0,0-.126-.154,1.792,1.792,0,0,0-.153-.126,31.8,31.8,0,0,0-44.758,0,1.547,1.547,0,0,0-.156.127,1.661,1.661,0,0,0-.126.154,31.8,31.8,0,0,0,0,44.759c.041.051.078.105.125.153a1.828,1.828,0,0,0,.154.125,32,32,0,0,0,7.889,5.708H38.946A37.848,37.848,0,0,1,64,24.747ZM46.2,80.4a1.751,1.751,0,0,0-2.475,0l-.971.971a28.246,28.246,0,0,1-7.063-17.019h1.386a1.75,1.75,0,0,0,0-3.5H35.693a28.243,28.243,0,0,1,7.063-17.019l.971.971A1.75,1.75,0,0,0,46.2,42.331l-.971-.97A28.243,28.243,0,0,1,62.25,34.3v1.386a1.75,1.75,0,0,0,3.5,0V34.3a28.243,28.243,0,0,1,17.019,7.063l-.97.971a1.749,1.749,0,1,0,2.474,2.474l.971-.97a28.243,28.243,0,0,1,7.063,17.019H90.921a1.75,1.75,0,1,0,0,3.5h1.386a28.243,28.243,0,0,1-7.063,17.018l-.971-.97A1.75,1.75,0,0,0,81.8,82.878l.97.97A28.239,28.239,0,0,1,65.75,90.912V89.525a1.75,1.75,0,0,0-3.5,0v1.387a28.243,28.243,0,0,1-17.019-7.063l.971-.971A1.751,1.751,0,0,0,46.2,80.4ZM94.875,108.99a8.825,8.825,0,0,0-8.636-7.061H41.761a8.825,8.825,0,0,0-8.636,7.061h-12.5l1.888-5.711A12.814,12.814,0,0,1,34.7,94.471H93.3a12.813,12.813,0,0,1,12.187,8.808l1.887,5.711Z"/><path d="M71.165,71.625a1.75,1.75,0,1,0,2.379-2.568L65.75,61.84V45.431a1.75,1.75,0,0,0-3.5,0V62.605a1.749,1.749,0,0,0,.561,1.284Z"/></svg>
