<svg id="Layer_1" height="512" viewBox="0 0 128 128" width="512" xmlns="http://www.w3.org/2000/svg" data-name="Layer 1"><path d="m40.136 48.979a1.75 1.75 0 0 0 2.474 0l1.046-1.046 1.044 1.046a1.75 1.75 0 0 0 2.477-2.479l-1.046-1.046 1.046-1.046a1.75 1.75 0 0 0 -2.477-2.47l-1.046 1.045-1.044-1.045a1.749 1.749 0 0 0 -2.474 2.474l1.046 1.046-1.046 1.042a1.749 1.749 0 0 0 0 2.479z"/><path d="m60.479 48.979a1.752 1.752 0 0 0 2.475 0l1.046-1.046 1.046 1.046a1.75 1.75 0 1 0 2.475-2.479l-1.046-1.046 1.046-1.046a1.75 1.75 0 1 0 -2.475-2.474l-1.046 1.049-1.046-1.045a1.75 1.75 0 1 0 -2.475 2.474l1.046 1.046-1.046 1.042a1.751 1.751 0 0 0 0 2.479z"/><path d="m80.823 48.979a1.752 1.752 0 0 0 2.475 0l1.046-1.046 1.046 1.046a1.75 1.75 0 1 0 2.474-2.479l-1.046-1.046 1.046-1.046a1.749 1.749 0 1 0 -2.474-2.474l-1.046 1.045-1.044-1.041a1.75 1.75 0 1 0 -2.475 2.474l1.046 1.046-1.048 1.042a1.751 1.751 0 0 0 0 2.479z"/><path d="m113.206 63.061h-7.353v-34.248a4.446 4.446 0 0 0 -8.714-1.256 27.6 27.6 0 0 0 -24.281-14.513h-17.716a27.6 27.6 0 0 0 -24.281 14.513 4.446 4.446 0 0 0 -8.714 1.256v34.248h-7.353a1.75 1.75 0 0 0 -1.75 1.75v7.25a1.751 1.751 0 0 0 1.75 1.75h1.936v36.956a1.751 1.751 0 0 0 1.75 1.75h10.833a1.75 1.75 0 0 0 1.75-1.75v-12.63h65.874v12.63a1.75 1.75 0 0 0 1.75 1.75h10.833a1.751 1.751 0 0 0 1.75-1.75v-36.956h1.936a1.751 1.751 0 0 0 1.75-1.75v-7.25a1.75 1.75 0 0 0 -1.75-1.75zm-12.769-34.248a.958.958 0 1 1 1.916 0v34.248h-1.916zm-45.295-12.269h17.716a24.106 24.106 0 0 1 24.079 24.078v22.439h-1.937a1.75 1.75 0 0 0 -1.75 1.75v6.515a11.918 11.918 0 0 0 -4.813-1.015h-48.874a11.918 11.918 0 0 0 -4.813 1.015v-6.515a1.75 1.75 0 0 0 -1.75-1.75h-1.937v-22.439a24.106 24.106 0 0 1 24.079-24.078zm-24.042 57.267-.04.039v-.039zm8.46 0h48.877a8.512 8.512 0 0 1 8.318 6.75h-65.51a8.512 8.512 0 0 1 8.318-6.75zm-13.916-45a.958.958 0 1 1 1.916 0v34.25h-1.913zm-9.1 37.748h14.706v3.75h-14.706zm11.019 42.456h-7.333v-35.204h7.333zm3.5-14.38v-10.574h65.874v10.576zm65.837-20.824h.04v.039zm10.873 35.206h-7.333v-35.206h7.333zm3.686-38.706h-14.709v-3.75h14.706z"/></svg>