<?xml version="1.0"?>
<svg xmlns="http://www.w3.org/2000/svg" id="Layer_1" data-name="Layer 1" viewBox="0 0 128 128" width="512" height="512"><title>BABY CRIB</title><path d="M113.206,34.25a1.749,1.749,0,0,0,1.75-1.75V24.271a1.75,1.75,0,0,0-1.75-1.75h-1.883V18.908a5.864,5.864,0,1,0-11.728,0v3.613H28.405V18.908a5.864,5.864,0,1,0-11.728,0v3.613H14.794a1.75,1.75,0,0,0-1.75,1.75V32.5a1.749,1.749,0,0,0,1.75,1.75h1.883V72H14.794a1.749,1.749,0,0,0-1.75,1.75v11.5A1.749,1.749,0,0,0,14.794,87h6.557l-8.224,25.672a1.751,1.751,0,0,0,1.667,2.284h5.873a1.75,1.75,0,0,0,1.606-1.056L33.9,87H94.1l11.627,26.9a1.75,1.75,0,0,0,1.606,1.056h5.873a1.751,1.751,0,0,0,1.667-2.284L106.649,87h6.557a1.749,1.749,0,0,0,1.75-1.75V73.75a1.749,1.749,0,0,0-1.75-1.75h-1.883V34.25ZM103.1,18.908a2.364,2.364,0,1,1,4.728,0v3.613H103.1Zm-82.918,0a2.364,2.364,0,1,1,4.728,0v3.613H20.177Zm-3.633,7.113h94.912V30.75H16.544ZM77.125,72V62.75h7.75V72Zm-17,0V62.75h7.75V72Zm-17,0V62.75h7.75V72ZM28.544,72a10.918,10.918,0,0,1,5.331-7.762V72Zm5.331-37.75V60.344a14.461,14.461,0,0,0-5.47,3.931V34.25Zm3.5,0h2.25V72h-2.25Zm13.5,0v25h-7.75v-25Zm3.5,0h2.25V72h-2.25Zm13.5,0v25h-7.75v-25Zm3.5,0h2.25V72h-2.25Zm13.5,0v25h-7.75v-25Zm3.5,0h2.25V72h-2.25Zm5.75,29.988A10.92,10.92,0,0,1,99.456,72H94.125Zm0-3.893V34.25H99.6V64.276A14.451,14.451,0,0,0,94.125,60.345ZM20.177,34.25h4.728V72H20.177Zm-.66,77.206H17.192L25.027,87h5.06Zm91.291,0h-2.325L97.913,87h5.06Zm.648-27.956H16.544v-8h94.912ZM107.823,72H103.1V34.25h4.728Z"/></svg>
