<svg id="Layer_1" height="512" viewBox="0 0 128 128" width="512" xmlns="http://www.w3.org/2000/svg" data-name="Layer 1"><path d="m100.283 60.848-11.8-42.022a7.937 7.937 0 0 0 -7.623-5.782h-33.722a7.939 7.939 0 0 0 -7.623 5.779l-11.8 42.025a1.75 1.75 0 0 0 1.685 2.223h23.783a38.993 38.993 0 0 1 -6.234 9.777 22.435 22.435 0 0 0 -.246 29.1h-.467a10.386 10.386 0 0 0 -10.375 10.375v.883a1.751 1.751 0 0 0 1.75 1.75h52.779a1.751 1.751 0 0 0 1.75-1.75v-.883a10.387 10.387 0 0 0 -10.375-10.375h-.421a22.518 22.518 0 0 0 -.219-29.014 40.422 40.422 0 0 1 -6.3-9.863h15.55v6.8a5.273 5.273 0 1 0 3.5 0v-6.8h4.725a1.75 1.75 0 0 0 1.684-2.223zm-8.158 15.746a1.774 1.774 0 1 1 1.775-1.774 1.775 1.775 0 0 1 -1.775 1.774zm-49.24-56.826a4.43 4.43 0 0 1 4.253-3.224h33.724a4.426 4.426 0 0 1 4.253 3.226l8.577 30.548h-59.384zm45.7 91.688h-49.17a6.885 6.885 0 0 1 6.821-6.008h4.692.015.022 30.8a6.885 6.885 0 0 1 6.82 6.008zm-10.119-36.246a19.018 19.018 0 0 1 -2 26.738h-24.854a18.937 18.937 0 0 1 -2.012-26.811 42.118 42.118 0 0 0 7.379-12.066h14.054a43.33 43.33 0 0 0 7.433 12.139zm13.669-15.639h-60.425l1.616-5.753h61.349l1.615 5.753z"/></svg>