<svg id="Layer_1" height="512" viewBox="0 0 128 128" width="512" xmlns="http://www.w3.org/2000/svg" data-name="Layer 1"><path d="m101.684 34.912a7.685 7.685 0 0 0 -3.913-2.285v-3.294a1.749 1.749 0 0 0 -1.75-1.75h-6.635c-1.334-.018-8.513-3.3-10.928-6.561-2.494-3.37-5.906-7.978-13.153-7.978h-.1c-4.01.023-6.511 1.987-8.929 3.888-2.389 1.878-4.646 3.651-8.561 3.651-6.81 0-9.867 3.982-10.872 7h-4.864a1.749 1.749 0 0 0 -1.75 1.75v3.294a7.653 7.653 0 0 0 -5.892 8.149l1.934 21.487a7.634 7.634 0 0 0 7.642 6.983h2.037l2.6 38.579a7.668 7.668 0 0 0 7.628 7.131h35.644a7.668 7.668 0 0 0 7.628-7.132l2.6-38.578h2.037a7.634 7.634 0 0 0 7.642-6.983l1.934-21.488a7.692 7.692 0 0 0 -1.979-5.863zm-53.966-10.829c5.126 0 8.1-2.337 10.724-4.4 2.133-1.676 3.975-3.124 6.786-3.14h.081c5.085 0 7.494 2.722 10.336 6.56a19.974 19.974 0 0 0 5.289 4.479h-40.28c.872-1.567 2.804-3.499 7.064-3.499zm-13.989 7h60.542v6.167h-60.542zm45.2 34.663a5.325 5.325 0 0 0 -5.014-3.583h-19.832a5.325 5.325 0 0 0 -5.014 3.583h-9.846l-1.685-25h52.924l-1.685 25zm-3.179 1.754a1.835 1.835 0 0 1 -1.833 1.833h-19.834a1.833 1.833 0 0 1 0-3.666h19.834a1.835 1.835 0 0 1 1.833 1.833zm-41.837-1.75a4.151 4.151 0 0 1 -4.155-3.8l-1.934-21.487a4.126 4.126 0 0 1 1.076-3.189 4.168 4.168 0 0 1 1.33-.969v2.695a1.749 1.749 0 0 0 1.75 1.75h2.05l1.685 25zm52.045 41.843a4.156 4.156 0 0 1 -4.136 3.867h-35.644a4.156 4.156 0 0 1 -4.136-3.866l-2.584-38.348h9.611a5.325 5.325 0 0 0 5.014 3.583h19.834a5.325 5.325 0 0 0 5.014-3.583h9.611zm12.284-45.645a4.151 4.151 0 0 1 -4.155 3.8h-1.8l1.685-25h2.051a1.749 1.749 0 0 0 1.748-1.748v-2.695a4.168 4.168 0 0 1 1.33.969 4.125 4.125 0 0 1 1.075 3.188z"/></svg>