<svg id="Layer_1" height="512" viewBox="0 0 128 128" width="512" xmlns="http://www.w3.org/2000/svg" data-name="Layer 1"><path d="m109.826 18.132h-31.421a20.6 20.6 0 0 0 -20.581 20.581v55.663a10.32 10.32 0 0 1 -20.64 0v-21.957h3.721a1.749 1.749 0 0 0 1.75-1.75v-6.608a7.11 7.11 0 0 1 7.1-7.1 1.75 1.75 0 0 0 1.75-1.75v-17.7a1.75 1.75 0 0 0 -1.75-1.75h-1.306v-4.03a1.75 1.75 0 0 0 -1.75-1.75h-.584v-12.29a4.647 4.647 0 1 0 -9.294 0v12.29h-9.536v-12.29a4.647 4.647 0 0 0 -9.294 0v12.29h-.584a1.75 1.75 0 0 0 -1.75 1.75v4.024h-1.307a1.75 1.75 0 0 0 -1.75 1.75v17.7a1.75 1.75 0 0 0 1.75 1.75 7.109 7.109 0 0 1 7.1 7.1v6.608a1.749 1.749 0 0 0 1.75 1.75h3.723v21.963a20.58 20.58 0 0 0 41.16 0v-55.663a10.333 10.333 0 0 1 10.322-10.321h31.421a5.13 5.13 0 1 0 0-10.26zm-69.5-.441a1.147 1.147 0 1 1 2.294 0v12.29h-2.299zm-18.83 0a1.147 1.147 0 0 1 2.294 0v12.29h-2.299zm-2.334 15.79h25.787v2.274h-25.792zm-3.062 20.119v-14.345h31.907v14.345a10.626 10.626 0 0 0 -8.707 8.711h-14.493a10.627 10.627 0 0 0 -8.707-8.711zm8.851 12.207h14.2v3.108h-14.2zm84.875-40.919h-31.421a13.837 13.837 0 0 0 -13.821 13.825v55.663a17.08 17.08 0 0 1 -34.16 0v-21.957h3.26v21.957a13.82 13.82 0 0 0 27.64 0v-55.663a17.1 17.1 0 0 1 17.081-17.081h31.421a1.63 1.63 0 1 1 0 3.26z"/></svg>