<svg id="Layer_1" height="512" viewBox="0 0 128 128" width="512" xmlns="http://www.w3.org/2000/svg" data-name="Layer 1"><path d="m92.643 75.821a11.766 11.766 0 0 0 11.757-11.753 1.751 1.751 0 0 0 -1.75-1.75h-12.829v-13.973c2.167-.533 3.429-.937 3.584-.988a1.749 1.749 0 0 0 1.209-1.664v-23.782a8.877 8.877 0 0 0 -8.867-8.867h-43.494a8.877 8.877 0 0 0 -8.867 8.867v23.782a1.749 1.749 0 0 0 1.214 1.664c.155.051 1.417.455 3.584.988v13.973h-12.829a1.751 1.751 0 0 0 -1.75 1.75 11.766 11.766 0 0 0 11.752 11.753h.069v3.571l-6.076 33.5a1.749 1.749 0 0 0 1.721 2.062h4.2a1.751 1.751 0 0 0 1.7-1.345l7.691-32.309h38.676l7.689 32.313a1.751 1.751 0 0 0 1.7 1.345h4.2a1.749 1.749 0 0 0 1.721-2.062l-6.076-33.5v-3.575zm-6.322-13.5h-2.092v-12.786q1.105-.2 2.092-.4zm-39.05 0v-12.2a113.749 113.749 0 0 0 16.729 1.237 113.749 113.749 0 0 0 16.729-1.242v12.2zm-10.385-40.41a5.373 5.373 0 0 1 5.367-5.367h43.494a5.373 5.373 0 0 1 5.367 5.367v22.472a105.639 105.639 0 0 1 -27.114 3.475 105.639 105.639 0 0 1 -27.114-3.475zm4.793 27.219q.985.2 2.092.4v12.788h-2.092zm-14.387 16.688h73.416a8.267 8.267 0 0 1 -8.065 6.5h-57.286a8.267 8.267 0 0 1 -8.065-6.5zm6.6 45.638h-.721l5.466-30.156h2.428zm60.224 0-7.181-30.156h2.428l5.47 30.158zm-5.042-33.656h-50.148v-1.979h50.148z"/></svg>