<svg id="Layer_1" height="512" viewBox="0 0 128 128" width="512" xmlns="http://www.w3.org/2000/svg" data-name="Layer 1"><path d="m113.206 18.147h-98.412a1.751 1.751 0 0 0 -1.75 1.75v12.017a1.751 1.751 0 0 0 1.75 1.75h4.581v68.836a1.751 1.751 0 0 0 1.75 1.75h5.529l-.862 3.426a1.75 1.75 0 0 0 1.7 2.177h8.039a1.749 1.749 0 0 0 1.62-1.089l1.843-4.514h50.014l1.843 4.514a1.749 1.749 0 0 0 1.62 1.089h8.039a1.75 1.75 0 0 0 1.7-2.177l-.862-3.426h5.529a1.751 1.751 0 0 0 1.75-1.75v-68.836h4.581a1.751 1.751 0 0 0 1.75-1.75v-12.014a1.751 1.751 0 0 0 -1.752-1.753zm-78.853 88.206h-4.619l.53-2.1h4.948zm63.913 0h-4.619l-.859-2.1h4.948zm6.859-5.6h-82.25v-67.089h82.25zm6.331-70.586h-94.912v-8.52h94.912z"/><path d="m29 64.063h70a1.75 1.75 0 0 0 1.75-1.75v-19.75a1.751 1.751 0 0 0 -1.75-1.75h-70a1.751 1.751 0 0 0 -1.75 1.75v19.75a1.75 1.75 0 0 0 1.75 1.75zm1.75-19.75h66.5v16.25h-66.5z"/><path d="m29 94.233h70a1.75 1.75 0 0 0 1.75-1.75v-19.75a1.751 1.751 0 0 0 -1.75-1.75h-70a1.751 1.751 0 0 0 -1.75 1.75v19.75a1.75 1.75 0 0 0 1.75 1.75zm1.75-19.75h66.5v16.25h-66.5z"/><path d="m64 48.241a6.653 6.653 0 0 0 -6.646 6.646 1.751 1.751 0 0 0 1.75 1.75h9.796a1.751 1.751 0 0 0 1.75-1.75 6.653 6.653 0 0 0 -6.65-6.646zm-2.613 4.9a3.143 3.143 0 0 1 5.226 0z"/><path d="m64 78.411a6.653 6.653 0 0 0 -6.646 6.645 1.751 1.751 0 0 0 1.75 1.75h9.796a1.751 1.751 0 0 0 1.75-1.75 6.653 6.653 0 0 0 -6.65-6.645zm-2.613 4.895a3.145 3.145 0 0 1 5.226 0z"/></svg>