<svg id="Layer_1" height="512" viewBox="0 0 128 128" width="512" xmlns="http://www.w3.org/2000/svg" data-name="Layer 1"><path d="m64 13.044a50.956 50.956 0 1 0 50.956 50.956 51.013 51.013 0 0 0 -50.956-50.956zm0 98.412a47.456 47.456 0 1 1 47.456-47.456 47.51 47.51 0 0 1 -47.456 47.456z"/><path d="m93.8 34.562a1.8 1.8 0 0 0 -.163-.2 1.611 1.611 0 0 0 -.2-.162 41.825 41.825 0 0 0 -58.876 0 1.611 1.611 0 0 0 -.2.162 1.8 1.8 0 0 0 -.163.2 41.828 41.828 0 0 0 0 58.876 1.8 1.8 0 0 0 .163.2 1.716 1.716 0 0 0 .2.163 41.828 41.828 0 0 0 58.876 0 1.716 1.716 0 0 0 .2-.163 1.8 1.8 0 0 0 .163-.2 41.828 41.828 0 0 0 0-58.876zm7.032 31.188h1.537a38.265 38.265 0 0 1 -10.011 24.133l-1.076-1.075a1.749 1.749 0 0 0 -2.474 2.474l1.075 1.076a38.265 38.265 0 0 1 -24.133 10.012v-1.537a1.75 1.75 0 0 0 -3.5 0v1.537a38.265 38.265 0 0 1 -24.133-10.012l1.075-1.076a1.749 1.749 0 0 0 -2.474-2.474l-1.076 1.075a38.265 38.265 0 0 1 -10.012-24.133h1.537a1.75 1.75 0 0 0 0-3.5h-1.537a38.265 38.265 0 0 1 10.012-24.133l1.076 1.075a1.749 1.749 0 0 0 2.474-2.474l-1.075-1.076a38.265 38.265 0 0 1 24.133-10.012v1.537a1.75 1.75 0 0 0 3.5 0v-1.537a38.265 38.265 0 0 1 24.133 10.012l-1.075 1.076a1.749 1.749 0 1 0 2.474 2.474l1.076-1.075a38.265 38.265 0 0 1 10.012 24.133h-1.537a1.75 1.75 0 0 0 0 3.5z"/><path d="m67.307 64.817a3.332 3.332 0 0 0 -1.557-3.736v-22.081a1.75 1.75 0 0 0 -3.5 0v22.081a3.407 3.407 0 0 0 1.75 6.336 3.371 3.371 0 0 0 .839-.117l10.367 10.2a1.751 1.751 0 1 0 2.455-2.5z"/></svg>