<svg id="Layer_1" height="512" viewBox="0 0 128 128" width="512" xmlns="http://www.w3.org/2000/svg" data-name="Layer 1"><path d="m105.586 48.063a4.813 4.813 0 0 0 0-9.625h-2.711v-5.666h1.458a1.749 1.749 0 0 0 1.75-1.75v-16.228a1.749 1.749 0 0 0 -1.75-1.75h-80.666a1.749 1.749 0 0 0 -1.75 1.75v16.228a1.749 1.749 0 0 0 1.75 1.75h1.458v62.456h-1.458a1.749 1.749 0 0 0 -1.75 1.75v16.228a1.749 1.749 0 0 0 1.75 1.75h80.666a1.749 1.749 0 0 0 1.75-1.75v-16.228a1.749 1.749 0 0 0 -1.75-1.75h-1.458v-47.165zm1.314-4.813a1.314 1.314 0 0 1 -1.312 1.313h-26.171v-2.625h26.169a1.313 1.313 0 0 1 1.314 1.312zm-44.336 8h2.875v5.25h-2.877zm-10.479-3.5v-9h23.832v9zm19.29-14.978v2.478h-14.75v-2.478zm28 5.666h-19.958v-1.438a1.749 1.749 0 0 0 -1.75-1.75h-2.792v-2.478h24.5zm-73.958-21.894h77.166v12.728h-77.166zm50.951 67.846a12.772 12.772 0 0 0 .454-3.332v-5.472a4.421 4.421 0 0 1 -.454 8.8zm-3.046-3.332a9.322 9.322 0 0 1 -18.644 0v-9.322h18.644zm-18.242 9.192a12.775 12.775 0 0 0 17.84 0h19.727a6.733 6.733 0 0 1 6.489 4.978h-70.272a6.733 6.733 0 0 1 6.489-4.978zm47.5 21.206h-77.163v-12.728h77.166zm-3.205-22.163a10.175 10.175 0 0 0 -6.728-2.543h-12.306a7.925 7.925 0 0 0 -3.519-14.7v-2.064a1.75 1.75 0 0 0 -1.75-1.75h-22.144a1.75 1.75 0 0 0 -1.75 1.75v11.072a12.722 12.722 0 0 0 1.35 5.692h-17.175a10.175 10.175 0 0 0 -6.728 2.543v-56.521h24.5v2.478h-2.792a1.749 1.749 0 0 0 -1.75 1.75v12.5a1.749 1.749 0 0 0 1.75 1.75h8.729v7a1.75 1.75 0 0 0 1.75 1.75h6.375a1.749 1.749 0 0 0 1.75-1.75v-7h8.73a1.749 1.749 0 0 0 1.75-1.75v-1.437h19.958z"/><path d="m30.5 27.625h8.5a1.749 1.749 0 0 0 1.75-1.75v-6.125a1.749 1.749 0 0 0 -1.75-1.75h-8.5a1.749 1.749 0 0 0 -1.75 1.75v6.125a1.749 1.749 0 0 0 1.75 1.75zm1.75-6.125h5v2.625h-5z"/></svg>