<svg id="Layer_1" height="512" viewBox="0 0 128 128" width="512" xmlns="http://www.w3.org/2000/svg" data-name="Layer 1"><path d="m113.206 99.123h-9.186v-84.329a1.751 1.751 0 0 0 -1.75-1.75h-76.54a1.751 1.751 0 0 0 -1.75 1.75v84.329h-9.186a1.75 1.75 0 0 0 -1.75 1.75v12.333a1.751 1.751 0 0 0 1.75 1.75h98.412a1.751 1.751 0 0 0 1.75-1.75v-12.333a1.75 1.75 0 0 0 -1.75-1.75zm-12.83-82.579a11 11 0 0 1 -21.717 0zm-25.522 0a10.992 10.992 0 0 1 -21.708 0zm-12.6 12.64v61.939h-26.774v-62.134a14.8 14.8 0 0 0 3.007.311 14.521 14.521 0 0 0 12.757-7.6 14.53 14.53 0 0 0 11.006 7.484zm-12.913-12.64a11.016 11.016 0 0 1 -14.9 8.494 1.594 1.594 0 0 0 -.151-.054 10.912 10.912 0 0 1 -6.662-8.44zm31.453 94.912h-64.25v-8.833h64.714c-.316 3.844-.427 6.988-.464 8.833zm.8-12.333h-54.114v-74.837a14.4 14.4 0 0 0 4.5 3.487v65.1a1.751 1.751 0 0 0 1.75 1.75h48.414c-.218 1.549-.4 3.053-.554 4.5zm-15.84-8v-61.939c.055-.007.108-.018.163-.025v.219c0 .254.313 25.072 25.343 32.864v5.187c-4.529 6.069-7.107 15.18-8.566 23.694zm34.77 20.333h-16.224c.158-6.589 1.3-30.319 9.574-41.7h6.644zm0-45.2h-5.768v-3.556h5.764zm0-7.05h-7.257c-23.5-6.671-23.851-28.88-23.854-29.823v-1.141a14.585 14.585 0 0 0 7.343-6.542 14.517 14.517 0 0 0 23.764 2.562zm10.936 52.255h-7.44v-8.833h7.436z"/><path d="m41.208 64.588a1.748 1.748 0 0 0 2.474 0l12.777-12.776a1.75 1.75 0 1 0 -2.475-2.475l-12.776 12.776a1.749 1.749 0 0 0 0 2.475z"/><path d="m53.984 59.021-4.834 4.834a1.75 1.75 0 0 0 2.475 2.475l4.834-4.83a1.75 1.75 0 1 0 -2.475-2.474z"/></svg>