<svg id="Layer_1" height="512" viewBox="0 0 128 128" width="512" xmlns="http://www.w3.org/2000/svg" data-name="Layer 1"><path d="m30.616 66.075-4.807 4.807a1.749 1.749 0 1 0 2.474 2.474l4.807-4.806a1.75 1.75 0 0 0 -2.474-2.475z"/><path d="m28.477 54.718a1.75 1.75 0 0 0 -1.75-1.75h-6.8a1.75 1.75 0 0 0 0 3.5h6.8a1.75 1.75 0 0 0 1.75-1.75z"/><path d="m44.384 70.844a1.749 1.749 0 0 0 -1.75 1.75v6.8a1.75 1.75 0 0 0 3.5 0v-6.8a1.75 1.75 0 0 0 -1.75-1.75z"/><path d="m109.821 61.12a10.661 10.661 0 0 0 -12.686-10.495l-12.214-12.214.688-.687a1.749 1.749 0 0 0 0-2.475l-5.378-5.378a7.927 7.927 0 0 0 -10.937-10.936l-5.378-5.378a1.749 1.749 0 0 0 -2.475 0l-9.4 9.4a1.736 1.736 0 0 0 -.066 2.395l-21.675 14.827a1.748 1.748 0 0 0 -.249 2.681l4.779 4.779a11.932 11.932 0 0 0 16.694 16.7l4.78 4.779a1.747 1.747 0 0 0 1.237.513c.054 0 .108 0 .162-.008a1.748 1.748 0 0 0 1.282-.754l14.833-21.68a1.733 1.733 0 0 0 2.394-.065l.687-.687 11.92 11.914a10.56 10.56 0 0 0 2.516 10.058l-15.035 34.78h-7.9a10.029 10.029 0 0 0 -10.018 10.017 1.75 1.75 0 0 0 1.75 1.75h42.93a1.75 1.75 0 0 0 1.75-1.75 10.029 10.029 0 0 0 -10.017-10.017h-6.139l13.8-31.915a10.7 10.7 0 0 0 7.365-10.154zm-3.5 0a7.19 7.19 0 1 1 -7.189-7.189 7.2 7.2 0 0 1 7.189 7.189zm-32.8-39.913a4.427 4.427 0 0 1 4.115 6.074l-5.755-5.756a4.429 4.429 0 0 1 1.644-.318zm-10.842-3.938 5.234 5.231 13.987 13.986-6.92 6.921-19.061-19.057-.157-.157zm-24.237 43.454a8.446 8.446 0 0 1 -1.106-10.578l11.685 11.684a8.463 8.463 0 0 1 -10.579-1.106zm18.847 4.424-23.271-23.27 20.472-14.006 16.8 16.8zm22.086-21.189 3.072-3.072 11.123 11.123a10.758 10.758 0 0 0 -3.173 2.97zm21.694 67.5h-38.952a6.529 6.529 0 0 1 6.279-4.767h26.395a6.529 6.529 0 0 1 6.278 4.765zm-20.959-8.269 14.09-32.589a10.6 10.6 0 0 0 4.223 1.178l-13.581 31.411z"/></svg>