<svg id="Layer_1" height="512" viewBox="0 0 128 128" width="512" xmlns="http://www.w3.org/2000/svg" data-name="Layer 1"><path d="m72.1 28.43a1.749 1.749 0 0 0 -2.475 0l-14.79 14.793a1.75 1.75 0 1 0 2.475 2.477l14.79-14.8a1.75 1.75 0 0 0 0-2.47z"/><path d="m69.628 39.642-5.6 5.6a1.75 1.75 0 1 0 2.475 2.475l5.6-5.6a1.75 1.75 0 0 0 -2.475-2.474z"/><path d="m107.666 50.338h-16.785v-35.544a1.749 1.749 0 0 0 -1.75-1.75h-50.262a1.749 1.749 0 0 0 -1.75 1.75v35.544h-16.785a1.749 1.749 0 0 0 -1.75 1.75v17.452a1.749 1.749 0 0 0 1.75 1.75h8.639v14.52a1.75 1.75 0 0 0 1.75 1.75h1.91v4.166a1.75 1.75 0 0 0 1.75 1.75h1.587l-3.313 19.436a1.751 1.751 0 0 0 1.726 2.044h4.217a1.749 1.749 0 0 0 1.694-1.312l5.206-20.168h37l5.208 20.168a1.749 1.749 0 0 0 1.694 1.312h4.215a1.751 1.751 0 0 0 1.726-2.044l-3.313-19.436h1.587a1.75 1.75 0 0 0 1.75-1.75v-4.166h1.91a1.75 1.75 0 0 0 1.75-1.75v-14.52h8.639a1.749 1.749 0 0 0 1.75-1.75v-17.452a1.749 1.749 0 0 0 -1.75-1.75zm-1.75 3.5v6.853h-15.035v-6.853zm-18.535 6.853h-2.669v-44.147h2.669zm-40.593 0v-44.147h34.424v44.147zm-6.169-44.147h2.669v44.147h-2.669zm-3.5 37.294v6.853h-15.035v-6.853zm.123 57.618h-.786l3.065-17.98h2.364zm54.3 0h-.786l-4.643-17.98h2.364zm.323-21.48h-55.732v-2.416h55.734zm3.66-5.916h-63.052v-12.77h63.054zm10.389-16.27h-83.83v-3.6h83.832z"/><path d="m61.875 79.425h4.25a1.75 1.75 0 0 0 0-3.5h-4.25a1.75 1.75 0 0 0 0 3.5z"/><path d="m27.477 59.015h4.25a1.75 1.75 0 0 0 0-3.5h-4.25a1.75 1.75 0 0 0 0 3.5z"/><path d="m96.273 59.015h4.25a1.75 1.75 0 0 0 0-3.5h-4.25a1.75 1.75 0 0 0 0 3.5z"/></svg>