<?xml version="1.0"?>
<svg xmlns="http://www.w3.org/2000/svg" id="Layer_1" data-name="Layer 1" viewBox="0 0 128 128" width="512" height="512"><title>FENCE</title><path d="M113.206,50.75a1.749,1.749,0,0,0,1.75-1.75V41.5a1.749,1.749,0,0,0-1.75-1.75H103.5v-11a1.735,1.735,0,0,0-.3-.984L93.7,13.81a1.813,1.813,0,0,0-2.892,0L81.3,27.766a1.735,1.735,0,0,0-.3.984v11H75.25v-11a1.735,1.735,0,0,0-.3-.984l-9.5-13.956a1.813,1.813,0,0,0-2.892,0l-9.5,13.956a1.735,1.735,0,0,0-.3.984v11H47v-11a1.735,1.735,0,0,0-.3-.984L37.2,13.81a1.813,1.813,0,0,0-2.892,0L24.8,27.766a1.735,1.735,0,0,0-.3.984v11H14.794a1.749,1.749,0,0,0-1.75,1.75V49a1.749,1.749,0,0,0,1.75,1.75H24.5v38H14.794a1.749,1.749,0,0,0-1.75,1.75V98a1.749,1.749,0,0,0,1.75,1.75H24.5v13.456a1.749,1.749,0,0,0,1.75,1.75h19a1.749,1.749,0,0,0,1.75-1.75V99.75h5.75v13.456a1.749,1.749,0,0,0,1.75,1.75h19a1.749,1.749,0,0,0,1.75-1.75V99.75H81v13.456a1.749,1.749,0,0,0,1.75,1.75h19a1.749,1.749,0,0,0,1.75-1.75V99.75h9.706a1.749,1.749,0,0,0,1.75-1.75V90.5a1.749,1.749,0,0,0-1.75-1.75H103.5v-38Zm-1.75-7.5v4H103.5v-4ZM75.25,50.75H81v38H75.25ZM81,43.25v4H75.25v-4Zm-34,7.5h5.75v38H47Zm5.75-7.5v4H47v-4Zm-36.206,4v-4H24.5v4Zm0,49v-4H24.5v4ZM43.5,111.456H28V29.289L35.75,17.9,43.5,29.289ZM47,96.25v-4h5.75v4Zm24.75,15.206H56.25V29.289L64,17.9l7.75,11.385Zm3.5-15.206v-4H81v4ZM100,111.456H84.5V29.289L92.25,17.9,100,29.289ZM111.456,92.25v4H103.5v-4Z"/><path d="M35.75,42.563a2.469,2.469,0,1,0,2.469,2.468A2.471,2.471,0,0,0,35.75,42.563Z"/><path d="M64,42.563a2.469,2.469,0,1,0,2.469,2.468A2.471,2.471,0,0,0,64,42.563Z"/><path d="M92.25,42.563a2.469,2.469,0,1,0,2.469,2.468A2.471,2.471,0,0,0,92.25,42.563Z"/><path d="M35.75,91.781a2.469,2.469,0,1,0,2.469,2.469A2.472,2.472,0,0,0,35.75,91.781Z"/><path d="M64,91.781a2.469,2.469,0,1,0,2.469,2.469A2.472,2.472,0,0,0,64,91.781Z"/><path d="M92.25,91.781a2.469,2.469,0,1,0,2.469,2.469A2.472,2.472,0,0,0,92.25,91.781Z"/></svg>
