<svg id="Layer_1" height="512" viewBox="0 0 128 128" width="512" xmlns="http://www.w3.org/2000/svg" data-name="Layer 1"><path d="m98.333 46a1.749 1.749 0 0 0 1.75-1.75v-29.456a1.749 1.749 0 0 0 -1.75-1.75h-68.666a1.749 1.749 0 0 0 -1.75 1.75v29.456a1.749 1.749 0 0 0 1.75 1.75h1.608v3.737h-1.608a1.75 1.75 0 0 0 -1.75 1.75v55.18a1.749 1.749 0 0 0 1.75 1.75h1.608v4.789a1.75 1.75 0 0 0 1.75 1.75h6.539a1.749 1.749 0 0 0 1.75-1.75v-4.789h45.372v4.789a1.749 1.749 0 0 0 1.75 1.75h6.539a1.75 1.75 0 0 0 1.75-1.75v-4.789h1.608a1.749 1.749 0 0 0 1.75-1.75v-55.18a1.75 1.75 0 0 0 -1.75-1.75h-1.608v-3.737zm-66.916-29.456h65.166v25.956h-65.166zm65.166 36.693v51.68h-65.166v-51.68zm-58.769 58.219h-3.039v-3.039h3.039zm55.411 0h-3.039v-3.039h3.039zm0-61.719h-58.45v-3.737h58.45z"/><path d="m44.125 39.25a7.508 7.508 0 0 0 7.5-7.5 1.75 1.75 0 0 0 -1.75-1.75h-11.5a1.75 1.75 0 0 0 -1.75 1.75 7.508 7.508 0 0 0 7.5 7.5zm3.6-5.75a4 4 0 0 1 -7.194 0z"/><path d="m44.125 64.875a7.508 7.508 0 0 0 7.5-7.5 1.75 1.75 0 0 0 -1.75-1.75h-11.5a1.75 1.75 0 0 0 -1.75 1.75 7.508 7.508 0 0 0 7.5 7.5zm3.6-5.75a4 4 0 0 1 -7.194 0z"/></svg>