<?xml version="1.0"?>
<svg xmlns="http://www.w3.org/2000/svg" id="Layer_1" data-name="Layer 1" viewBox="0 0 128 128" width="512" height="512"><title>GARAGE</title><path d="M113.206,110.56h-3.227V88A1.747,1.747,0,0,0,109,86.435l-9.748-4.809v-10.2A7.251,7.251,0,0,0,104.521,58L68.812,39.354V32.771a1.75,1.75,0,0,0-1.75-1.75H65.75V28.5l13.875-4.522a1.751,1.751,0,0,0,0-3.329L65.75,16.126V15.69a1.75,1.75,0,1,0-3.5,0V31.021H60.937a1.751,1.751,0,0,0-1.75,1.75v6.583L23.478,58a7.254,7.254,0,0,0,5.266,13.429v10.2L19,86.435A1.749,1.749,0,0,0,18.021,88V110.56H14.794a1.75,1.75,0,1,0,0,3.5h98.412a1.75,1.75,0,1,0,0-3.5ZM73.437,22.313,65.75,24.818V19.807Zm33.042,66.779V110.56H99.256V85.529ZM82.3,103.124H45.7V99.237H82.3Zm0-7.387H45.7V91.851H82.3ZM45.7,106.624H82.3v3.886H45.7Zm36.6-25.66H45.7V77.078H82.3Zm0,3.5v3.887H45.7V84.464Zm3.5-9.136a1.75,1.75,0,0,0-1.75-1.75h-40.1a1.75,1.75,0,0,0-1.75,1.75V110.56H32.244V69.8L64,53.212,95.756,69.8V110.56H85.8ZM65.312,34.521V37.9a7.238,7.238,0,0,0-2.625,0V34.521Zm-41.8,31.651A3.76,3.76,0,0,1,25.1,61.1L62.262,41.7a3.758,3.758,0,0,1,3.476,0L102.9,61.1a3.756,3.756,0,1,1-3.476,6.659L64.81,49.687a1.748,1.748,0,0,0-1.62,0L28.576,67.762A3.76,3.76,0,0,1,23.508,66.172Zm-1.987,22.92,7.223-3.563V110.56H21.521Z"/></svg>
