<svg id="Layer_1" height="512" viewBox="0 0 128 128" width="512" xmlns="http://www.w3.org/2000/svg" data-name="Layer 1"><path d="m113.206 101.83h-3.227v-22.5a1.749 1.749 0 0 0 -.979-1.574l-9.747-4.809v-10.2a7.251 7.251 0 0 0 5.266-13.423l-37.161-19.408a7.247 7.247 0 0 0 -6.716 0l-11.086 5.789v-2.535h.063a1.75 1.75 0 0 0 1.75-1.75v-7a1.75 1.75 0 0 0 -1.75-1.75h-19.125a1.749 1.749 0 0 0 -1.75 1.75v7a1.749 1.749 0 0 0 1.75 1.75h.062v12.456l-7.078 3.7a7.254 7.254 0 0 0 5.266 13.429v10.2l-9.744 4.801a1.749 1.749 0 0 0 -.976 1.569v22.5h-3.23a1.75 1.75 0 1 0 0 3.5h98.412a1.75 1.75 0 0 0 0-3.5zm-6.727-21.417v21.417h-7.223v-24.98zm-30.434 21.417h-24.09v-26.048h24.09zm1.755-29.548h-27.595a1.75 1.75 0 0 0 -1.75 1.75v27.8h-16.211v-40.716l31.756-16.583 31.756 16.583v40.714h-16.211v-27.8a1.75 1.75 0 0 0 -1.745-1.748zm-45.556-46.112h15.625v3.5h-15.625zm1.812 7h12v4.362l-12 6.266zm-10.548 24.322a3.761 3.761 0 0 1 1.59-5.068l37.164-19.406a3.753 3.753 0 0 1 3.476 0l37.162 19.406a3.757 3.757 0 0 1 -1.742 7.087 3.719 3.719 0 0 1 -1.734-.427l-34.614-18.076a1.748 1.748 0 0 0 -1.62 0l-34.614 18.075a3.759 3.759 0 0 1 -5.068-1.591zm-1.987 22.921 7.223-3.563v24.98h-7.223z"/><path d="m64 51.712a6.395 6.395 0 1 0 6.4 6.394 6.4 6.4 0 0 0 -6.4-6.394zm0 9.288a2.895 2.895 0 1 1 2.9-2.894 2.9 2.9 0 0 1 -2.9 2.894z"/></svg>