<svg id="Layer_1" height="512" viewBox="0 0 128 128" width="512" xmlns="http://www.w3.org/2000/svg" data-name="Layer 1"><path d="m25.975 93.692c-.743-.568-1.592-1.43-1.424-2.311a2.041 2.041 0 0 1 1.279-1.388 1.75 1.75 0 1 0 -.955-3.367 5.492 5.492 0 0 0 -3.762 4.1c-.227 1.19-.174 3.519 2.734 5.747a2 2 0 0 1 .884 2.038 2.9 2.9 0 0 1 -1.969 2.155 1.75 1.75 0 1 0 1.013 3.35 6.354 6.354 0 0 0 4.4-4.879 5.468 5.468 0 0 0 -2.2-5.445z"/><path d="m40.225 93.692c-.743-.568-1.592-1.43-1.424-2.311a2.041 2.041 0 0 1 1.279-1.388 1.75 1.75 0 1 0 -.955-3.367 5.492 5.492 0 0 0 -3.762 4.1c-.227 1.19-.174 3.519 2.734 5.747a2 2 0 0 1 .884 2.038 2.9 2.9 0 0 1 -1.969 2.155 1.75 1.75 0 1 0 1.013 3.35 6.354 6.354 0 0 0 4.4-4.879 5.468 5.468 0 0 0 -2.2-5.445z"/><path d="m54.475 93.692c-.743-.568-1.592-1.43-1.424-2.311a2.041 2.041 0 0 1 1.279-1.388 1.75 1.75 0 1 0 -.955-3.367 5.492 5.492 0 0 0 -3.762 4.1c-.227 1.19-.174 3.519 2.734 5.747a2 2 0 0 1 .884 2.038 2.9 2.9 0 0 1 -1.969 2.155 1.75 1.75 0 1 0 1.013 3.35 6.354 6.354 0 0 0 4.4-4.879 5.468 5.468 0 0 0 -2.2-5.445z"/><path d="m68.725 93.692c-.743-.568-1.592-1.43-1.424-2.311a2.041 2.041 0 0 1 1.279-1.388 1.75 1.75 0 1 0 -.955-3.367 5.492 5.492 0 0 0 -3.762 4.1c-.227 1.19-.174 3.519 2.734 5.747a2 2 0 0 1 .884 2.038 2.9 2.9 0 0 1 -1.969 2.155 1.75 1.75 0 1 0 1.013 3.35 6.354 6.354 0 0 0 4.4-4.879 5.468 5.468 0 0 0 -2.2-5.445z"/><path d="m82.975 93.692c-.743-.568-1.592-1.43-1.424-2.311a2.041 2.041 0 0 1 1.279-1.388 1.75 1.75 0 1 0 -.955-3.367 5.492 5.492 0 0 0 -3.762 4.1c-.227 1.19-.174 3.519 2.734 5.747a2 2 0 0 1 .884 2.038 2.9 2.9 0 0 1 -1.969 2.155 1.75 1.75 0 1 0 1.013 3.35 6.354 6.354 0 0 0 4.4-4.879 5.468 5.468 0 0 0 -2.2-5.445z"/><path d="m97.225 93.692c-.743-.568-1.592-1.43-1.424-2.311a2.041 2.041 0 0 1 1.279-1.388 1.75 1.75 0 0 0 -.955-3.367 5.492 5.492 0 0 0 -3.762 4.1c-.227 1.19-.174 3.519 2.734 5.747a2 2 0 0 1 .884 2.038 2.9 2.9 0 0 1 -1.969 2.155 1.75 1.75 0 1 0 1.013 3.35 6.354 6.354 0 0 0 4.4-4.879 5.468 5.468 0 0 0 -2.2-5.445z"/><path d="m114.8 44.434a1.748 1.748 0 0 0 -2.321-.857l-5.153 2.375-.361-.927a1.743 1.743 0 0 0 -2.082-1.055l-6.7 1.789-.609-2.725v-.013-7.2a11.924 11.924 0 0 0 -11.91-11.91h-27.884a11.924 11.924 0 0 0 -11.91 11.909v6.438a26.081 26.081 0 0 0 -5.183 1.73c-.792.354-1.537.727-2.274 1.14l-.07.037-.012.007a33.844 33.844 0 0 0 -12.417 12.838c-.464.826-.856 1.583-1.2 2.309-.067.126-.125.251-.178.369a42.233 42.233 0 0 0 -2.536 6.863l-1.214 4.407a9.766 9.766 0 0 0 -7.742 9.542 1.75 1.75 0 0 0 1.75 1.75h90.956a1.75 1.75 0 0 0 1.75-1.75v-8a1.75 1.75 0 0 0 -1.75-1.75h-1.758l-3.434-15.35 7.7-3.451a1.748 1.748 0 0 0 .915-2.231l-.582-1.5 5.345-2.464a1.748 1.748 0 0 0 .864-2.32zm-65.43-8.614a8.42 8.42 0 0 1 8.41-8.41h27.873a8.42 8.42 0 0 1 8.41 8.41v5.846h-3.934v-6.477a4.489 4.489 0 0 0 -4.484-4.484h-27.857a4.49 4.49 0 0 0 -4.488 4.484v6.477h-1.98c-.653 0-1.3.034-1.95.084zm7.43 5.846v-6.477a.985.985 0 0 1 .985-.984h27.86a.985.985 0 0 1 .984.984v6.477zm-18.029 7.353a7.982 7.982 0 0 1 -10.181 11.4c.121-.227.238-.45.372-.689a30.917 30.917 0 0 1 9.809-10.711zm65.229 30.73h-87.207a6.261 6.261 0 0 1 6-4.5h81.207zm-79.523-8 .9-3.27a39.143 39.143 0 0 1 1.7-4.894 11.385 11.385 0 0 0 4.852 1.081 11.494 11.494 0 0 0 9.9-17.347c.1-.046.193-.094.295-.139a22.139 22.139 0 0 1 9.2-2.014h43.134l5.948 26.583zm75.3-18.837-.836-3.735 5.325-1.422 1.043 2.679z"/></svg>