<svg id="Layer_1" height="512" viewBox="0 0 128 128" width="512" xmlns="http://www.w3.org/2000/svg" data-name="Layer 1"><path d="m113.206 103.1h-12.726l-29.152-24.975 29.152-24.978h3.239a11.25 11.25 0 0 0 11.237-11.238 1.75 1.75 0 0 0 -1.75-1.75h-58.441a20.82 20.82 0 0 0 -18.574-11.429h-6.274v-3.83h13.208v.75a1.75 1.75 0 0 0 3.5 0v-2.5a1.75 1.75 0 0 0 -1.75-1.75h-16.708a1.75 1.75 0 0 0 -1.75 1.75v17.009h-11.623a1.75 1.75 0 0 0 -1.75 1.75 11.25 11.25 0 0 0 11.237 11.238h3.239l29.152 24.978-29.152 24.975h-12.726a1.75 1.75 0 1 0 0 3.5h98.412a1.75 1.75 0 0 0 0-3.5zm-22 0-22.624-19.379a7.294 7.294 0 0 0 1.646-1.929l24.872 21.308zm-30.942-24.975a3.736 3.736 0 1 1 3.736 3.737 3.74 3.74 0 0 1 -3.736-3.737zm3.736-7.237a7.217 7.217 0 0 0 -1.024.081l-20.8-17.822h43.648l-20.8 17.822a7.217 7.217 0 0 0 -1.024-.081zm0 14.474a7.191 7.191 0 0 0 1.023-.081l20.8 17.822h-43.647l20.8-17.822a7.193 7.193 0 0 0 1.024.081zm6.228-10.9a7.292 7.292 0 0 0 -1.646-1.929l22.618-19.386h3.9zm-40.311-42.232h6.274a17.322 17.322 0 0 1 14.548 7.929h-20.822zm-13.174 11.429h94.514a7.751 7.751 0 0 1 -7.538 5.988h-79.438a7.751 7.751 0 0 1 -7.538-5.988zm20.057 9.488 22.617 19.383a7.286 7.286 0 0 0 -1.645 1.928l-24.872-21.311zm20.972 28.645a7.286 7.286 0 0 0 1.645 1.928l-22.617 19.38h-3.9z"/></svg>