<svg id="Layer_1" height="512" viewBox="0 0 128 128" width="512" xmlns="http://www.w3.org/2000/svg" data-name="Layer 1"><path d="m92.652 24.007a7.334 7.334 0 1 0 10.369 0 7.285 7.285 0 0 0 -10.369 0zm7.895 7.894a3.831 3.831 0 1 1 1.123-2.71 3.836 3.836 0 0 1 -1.123 2.709z"/><path d="m109.171 17.858a16.022 16.022 0 0 0 -15.942-4.017 19.2 19.2 0 0 1 -8.288.444c-6.858-1-12.959.785-17.187 5.016-5.434 5.433-6.773 14.278-3.494 23.083a13.014 13.014 0 0 1 -3.173 13.665l-44.787 44.787a7.17 7.17 0 0 0 -.618 9.547 7.031 7.031 0 0 0 5.071 2.546c.11 0 .22.008.33.008a7.02 7.02 0 0 0 4.95-2.05l.548-.548 3.982 3.982a1.749 1.749 0 0 0 2.475 0l9.066-9.066a1.749 1.749 0 0 0 0-2.475l-3.981-3.98 2.4-2.4 2.747 2.747a1.75 1.75 0 0 0 2.474 0l7.005-7.006a1.749 1.749 0 0 0 0-2.475l-2.745-2.746 20.975-20.979a13.015 13.015 0 0 1 13.667-3.173c8.8 3.28 17.648 1.941 23.083-3.493 4.229-4.23 6.01-10.335 5.014-17.188a19.215 19.215 0 0 1 .444-8.288 16.013 16.013 0 0 0 -4.016-15.941zm-70.778 86.16-6.593 6.591-2.746-2.745 6.592-6.591zm10.646-13.118-4.531 4.532-1.508-1.51 4.531-4.531zm60.8-58.1a22.65 22.65 0 0 0 -.554 9.8c.832 5.733-.6 10.78-4.026 14.21-4.521 4.521-11.768 5.523-19.387 2.687a16.528 16.528 0 0 0 -17.362 3.979l-44.951 44.936a3.577 3.577 0 0 1 -2.639 1.021 3.477 3.477 0 0 1 -2.539-1.279 3.646 3.646 0 0 1 .394-4.843l44.787-44.788a16.52 16.52 0 0 0 3.978-17.362c-2.84-7.617-1.832-14.861 2.689-19.386a15.3 15.3 0 0 1 11.085-4.258 21.852 21.852 0 0 1 3.123.231 22.6 22.6 0 0 0 9.8-.554 12.525 12.525 0 0 1 15.6 15.6z"/></svg>