<svg id="Layer_1" height="512" viewBox="0 0 128 128" width="512" xmlns="http://www.w3.org/2000/svg" data-name="Layer 1"><path d="m84.854 24.86a1.236 1.236 0 0 1 .563 1.262 1.921 1.921 0 0 1 -1.308 1.424 1.75 1.75 0 0 0 1.014 3.35 5.4 5.4 0 0 0 3.737-4.148 4.686 4.686 0 0 0 -1.879-4.667c-.335-.256-1.1-.911-.992-1.474a1.261 1.261 0 0 1 .755-.817 1.75 1.75 0 1 0 -.955-3.367 4.727 4.727 0 0 0 -3.238 3.528c-.196 1.026-.151 3.027 2.303 4.909z"/><path d="m96.143 24.86a1.234 1.234 0 0 1 .563 1.262 1.921 1.921 0 0 1 -1.306 1.424 1.75 1.75 0 0 0 1.014 3.35 5.4 5.4 0 0 0 3.736-4.148 4.684 4.684 0 0 0 -1.878-4.667c-.334-.256-1.1-.911-.993-1.474a1.262 1.262 0 0 1 .756-.817 1.75 1.75 0 1 0 -.955-3.367 4.725 4.725 0 0 0 -3.238 3.528c-.197 1.026-.158 3.027 2.301 4.909z"/><path d="m113.206 53.188h-9.269v-3.638a1.75 1.75 0 0 0 -1.75-1.75c-.038 0-.077 0-.09-.166a15.362 15.362 0 0 0 4.757-11.167 1.75 1.75 0 0 0 -1.75-1.75h-27.504a1.749 1.749 0 0 0 -1.75 1.75 15.671 15.671 0 0 0 4.772 11.259c-.03.074-.069.074-.106.074a1.749 1.749 0 0 0 -1.75 1.75v3.638h-7.516v-9a1.749 1.749 0 0 0 -1.75-1.75h-10.687v-6.417a1.75 1.75 0 0 0 -1.75-1.75h-3.5a1.75 1.75 0 0 0 0 3.5h1.75v4.667h-11.413v-6.417a1.75 1.75 0 0 0 -3.5 0v6.417h-11.42v-4.667h1.75a1.75 1.75 0 0 0 0-3.5h-3.5a1.751 1.751 0 0 0 -1.75 1.75v6.417h-10.686a1.749 1.749 0 0 0 -1.75 1.75v59.25a1.75 1.75 0 0 0 1.75 1.75h1.581v4.706a1.75 1.75 0 0 0 1.75 1.75h91.75a1.75 1.75 0 0 0 1.75-1.75v-4.706h1.581a1.75 1.75 0 0 0 1.75-1.75v-48.5a1.749 1.749 0 0 0 -1.75-1.75zm-1.75 24.25h-40.206v-20.75h40.206zm-1.581 24.25h-38.625v-20.75h40.206v20.75zm-93.331 0v-45h51.206v45zm66.491-56.578a11.877 11.877 0 0 1 -3.556-6.893h23.75a11.879 11.879 0 0 1 -3.558 6.893 3.565 3.565 0 0 0 -.837 3.922 3.608 3.608 0 0 0 1.6 1.819v2.337h-18.164v-2.337a3.611 3.611 0 0 0 1.6-1.819 3.565 3.565 0 0 0 -.835-3.922zm-66.491.828h51.206v7.25h-51.206zm3.331 62.206v-2.956h88.25v2.956z"/><path d="m91.354 71.063a6.257 6.257 0 0 0 6.25-6.25 1.75 1.75 0 0 0 -1.75-1.75h-9a1.749 1.749 0 0 0 -1.75 1.75 6.257 6.257 0 0 0 6.25 6.25zm2.12-4.5a2.748 2.748 0 0 1 -4.241 0z"/><path d="m95.854 87.313h-9a1.749 1.749 0 0 0 -1.75 1.75 6.25 6.25 0 0 0 12.5 0 1.75 1.75 0 0 0 -1.75-1.75zm-4.5 4.5a2.748 2.748 0 0 1 -2.121-1h4.241a2.748 2.748 0 0 1 -2.12 1z"/><path d="m29.865 64.479a4.389 4.389 0 0 0 -4.385 4.384v19.815a4.385 4.385 0 0 0 8.77 0v-19.815a4.389 4.389 0 0 0 -4.385-4.384zm.885 24.2a.885.885 0 1 1 -1.77 0v-19.816a.885.885 0 0 1 1.77 0z"/><path d="m42.146 64.479a4.389 4.389 0 0 0 -4.384 4.384v19.815a4.385 4.385 0 0 0 8.77 0v-19.815a4.39 4.39 0 0 0 -4.386-4.384zm.886 24.2a.885.885 0 0 1 -.885.885.885.885 0 0 1 -.884-.885v-19.816a.885.885 0 0 1 1.77 0z"/><path d="m54.429 64.479a4.389 4.389 0 0 0 -4.385 4.384v19.815a4.385 4.385 0 1 0 8.769 0v-19.815a4.388 4.388 0 0 0 -4.384-4.384zm.884 24.2a.885.885 0 1 1 -1.769 0v-19.816a.885.885 0 0 1 1.769 0z"/></svg>