<svg id="Layer_1" height="512" viewBox="0 0 128 128" width="512" xmlns="http://www.w3.org/2000/svg" data-name="Layer 1"><path d="m113.206 41.558h-98.412a1.75 1.75 0 0 0 -1.75 1.75v59.234a1.751 1.751 0 0 0 1.75 1.75h3.646v6.383a1.751 1.751 0 0 0 1.75 1.75h87.62a1.751 1.751 0 0 0 1.75-1.75v-6.383h3.646a1.751 1.751 0 0 0 1.75-1.75v-59.234a1.75 1.75 0 0 0 -1.75-1.75zm-7.146 67.367h-84.12v-4.633h84.12zm5.4-8.133h-94.916v-55.734h94.912z"/><path d="m22.875 96.555h60.667a1.751 1.751 0 0 0 1.75-1.75v-43.761a1.751 1.751 0 0 0 -1.75-1.75h-60.667a1.751 1.751 0 0 0 -1.75 1.75v43.761a1.751 1.751 0 0 0 1.75 1.75zm2.036-3.5a5.6 5.6 0 0 1 5.344-3.88h45.906a5.6 5.6 0 0 1 5.345 3.88zm56.881-40.261v34.818a9.116 9.116 0 0 0 -5.631-1.937h-45.906a9.108 9.108 0 0 0 -5.63 1.937v-34.818z"/><path d="m92 64.24h13.25a1.751 1.751 0 0 0 1.75-1.75v-9.214a1.751 1.751 0 0 0 -1.75-1.75h-13.25a1.751 1.751 0 0 0 -1.75 1.75v9.214a1.751 1.751 0 0 0 1.75 1.75zm1.75-9.214h9.75v5.714h-9.75z"/><path d="m92 87.906h13.25a1.75 1.75 0 0 0 0-3.5h-13.25a1.75 1.75 0 0 0 0 3.5z"/><path d="m92 94.323h13.25a1.75 1.75 0 0 0 0-3.5h-13.25a1.75 1.75 0 0 0 0 3.5z"/><path d="m98.625 66.99a6.875 6.875 0 1 0 6.875 6.875 6.883 6.883 0 0 0 -6.875-6.875zm0 10.25a3.375 3.375 0 1 1 3.375-3.375 3.379 3.379 0 0 1 -3.375 3.375z"/><path d="m71.25 29.563a1.75 1.75 0 1 0 3.031-1.75 11.882 11.882 0 0 0 -20.589 0 1.75 1.75 0 1 0 3.032 1.749 8.381 8.381 0 0 1 14.526 0z"/><path d="m58.234 33.742a5.753 5.753 0 1 0 5.753-5.753 5.759 5.759 0 0 0 -5.753 5.753zm8.006 0a2.253 2.253 0 1 1 -2.253-2.253 2.256 2.256 0 0 1 2.253 2.253z"/><path d="m49.755 25.369a1.75 1.75 0 0 0 2.449-.361 14.547 14.547 0 0 1 11.783-5.933 14.736 14.736 0 0 1 11.806 5.964 1.75 1.75 0 0 0 2.816-2.08 18.169 18.169 0 0 0 -29.215-.038 1.75 1.75 0 0 0 .361 2.448z"/></svg>