<?xml version="1.0"?>
<svg xmlns="http://www.w3.org/2000/svg" id="Layer_1" data-name="Layer 1" viewBox="0 0 128 128" width="512" height="512"><title>MIRROR</title><path d="M55.611,57.262a1.747,1.747,0,0,0,1.238-.512L69.626,43.973A1.75,1.75,0,0,0,67.151,41.5L54.374,54.275a1.75,1.75,0,0,0,1.237,2.987Z"/><path d="M67.151,51.182l-4.835,4.835a1.75,1.75,0,1,0,2.475,2.474l4.835-4.834a1.75,1.75,0,0,0-2.475-2.475Z"/><path d="M64,83.8c14.057,0,25.492-14.075,25.492-31.376S78.057,21.044,64,21.044,38.508,35.119,38.508,52.419,49.943,83.8,64,83.8Zm0-59.251c12.127,0,21.992,12.505,21.992,27.875S76.127,80.3,64,80.3,42.008,67.79,42.008,52.419,51.873,24.544,64,24.544Z"/><path d="M104.316,52.419a1.75,1.75,0,0,0-1.75-1.75H98.153c-.8-20.9-15.809-37.625-34.153-37.625S30.646,29.767,29.847,50.669H25.434a1.75,1.75,0,0,0-1.75,1.75c0,22.937,14.49,42.034,33.468,45.8V104H50.886a9.217,9.217,0,0,0-9.206,9.206,1.75,1.75,0,0,0,1.75,1.75H84.57a1.75,1.75,0,0,0,1.75-1.75A9.217,9.217,0,0,0,77.114,104H70.848V98.214C89.826,94.453,104.316,75.356,104.316,52.419ZM64,16.544c16.923,0,30.691,16.094,30.691,35.875S80.923,88.3,64,88.3,33.309,72.2,33.309,52.419,47.077,16.544,64,16.544ZM27.214,54.169h2.633C30.646,75.072,45.656,91.8,64,91.8S97.354,75.072,98.153,54.169h2.633C100,77.061,83.8,95.4,64,95.4S28,77.061,27.214,54.169Zm55.332,57.287H45.454a5.716,5.716,0,0,1,5.432-3.956H77.114A5.716,5.716,0,0,1,82.546,111.456ZM67.348,104h-6.7V98.726c1.1.105,2.22.172,3.348.172s2.243-.067,3.348-.172Z"/></svg>
