<svg id="Layer_1" height="512" viewBox="0 0 128 128" width="512" xmlns="http://www.w3.org/2000/svg" data-name="Layer 1"><path d="m56.6 81.4a1.748 1.748 0 0 0 1.237-.512l14.797-14.788a1.75 1.75 0 0 0 -2.475-2.475l-14.793 14.788a1.75 1.75 0 0 0 1.234 2.987z"/><path d="m70.159 74.832-5.6 5.6a1.749 1.749 0 1 0 2.477 2.468l5.6-5.6a1.75 1.75 0 0 0 -2.475-2.475z"/><path d="m27.047 50.093a1.75 1.75 0 0 0 -1.75 1.75v42.839a1.751 1.751 0 0 0 1.75 1.75h73.906a1.75 1.75 0 0 0 1.75-1.75v-42.839a1.749 1.749 0 0 0 -1.75-1.75zm72.153 42.839h-70.4v-39.339h70.4z"/><path d="m111.662 36.227a1.75 1.75 0 0 0 1.75-1.75v-19.683a1.749 1.749 0 0 0 -1.75-1.75h-95.324a1.75 1.75 0 0 0 -1.75 1.75v19.683a1.751 1.751 0 0 0 1.75 1.75h8.962v3.832h-8.962a1.75 1.75 0 0 0 -1.75 1.75v62.907a1.75 1.75 0 0 0 1.75 1.75h1.832v6.74a1.75 1.75 0 0 0 1.75 1.75h8.491a1.75 1.75 0 0 0 1.75-1.75v-6.74h67.679v6.74a1.749 1.749 0 0 0 1.75 1.75h8.49a1.749 1.749 0 0 0 1.75-1.75v-6.74h1.832a1.749 1.749 0 0 0 1.75-1.75v-62.907a1.749 1.749 0 0 0 -1.75-1.75h-8.962v-3.832zm-93.574-19.683h91.824v16.183h-91.824zm8.573 94.912h-4.991v-4.99h4.991zm79.669 0h-4.99v-4.99h4.99zm3.582-8.49h-91.824v-59.407h91.824zm-10.712-62.907h-70.4v-3.832h70.4z"/><path d="m46.676 30.075a5.441 5.441 0 1 0 -5.44-5.44 5.447 5.447 0 0 0 5.44 5.44zm0-7.381a1.941 1.941 0 1 1 -1.94 1.941 1.943 1.943 0 0 1 1.94-1.941z"/><path d="m64 30.075a5.441 5.441 0 1 0 -5.44-5.44 5.446 5.446 0 0 0 5.44 5.44zm0-7.381a1.941 1.941 0 1 1 -1.94 1.941 1.942 1.942 0 0 1 1.94-1.941z"/><path d="m81.323 30.075a5.441 5.441 0 1 0 -5.44-5.44 5.447 5.447 0 0 0 5.44 5.44zm0-7.381a1.941 1.941 0 1 1 -1.94 1.941 1.942 1.942 0 0 1 1.94-1.941z"/></svg>