<svg id="Layer_1" height="512" viewBox="0 0 128 128" width="512" xmlns="http://www.w3.org/2000/svg" data-name="Layer 1"><path d="m114.858 38.924a20.931 20.931 0 0 0 -20.933-19.018h-59.85a20.933 20.933 0 0 0 -20.934 19.023c-.065.706-.1 1.363-.1 2.009v6.676a6.643 6.643 0 0 0 6.635 6.635h8.906a6.643 6.643 0 0 0 6.635-6.635v-6.475a5.19 5.19 0 0 1 .231-1.554 5.423 5.423 0 0 1 5.178-3.856h46.745a5.43 5.43 0 0 1 5.185 3.877 5.19 5.19 0 0 1 .223 1.533v6.475a6.643 6.643 0 0 0 6.635 6.635h8.907a6.643 6.643 0 0 0 6.635-6.635v-6.676c0-.654-.032-1.312-.098-2.014zm-18.6 1.915h15.2v.1 2.585h-15.179v-2.385c0-.102-.018-.199-.021-.3zm-64.538.3v2.384h-15.176v-2.585c0-.033 0-.067 0-.1h15.2c-.005.102-.024.199-.024.301zm-3.135 9.61h-8.906a3.138 3.138 0 0 1 -3.135-3.135v-.591h15.176v.591a3.138 3.138 0 0 1 -3.135 3.135zm58.786-18.52h-46.742a8.957 8.957 0 0 0 -8.054 5.11h-15.652a17.434 17.434 0 0 1 17.152-13.933h59.85a17.434 17.434 0 0 1 17.152 13.933h-15.653a8.959 8.959 0 0 0 -8.053-5.11zm20.95 18.52h-8.907a3.139 3.139 0 0 1 -3.135-3.135v-.591h15.177v.591a3.138 3.138 0 0 1 -3.135 3.135z"/><path d="m106.215 84.354-12.231-27.823a1.749 1.749 0 0 0 -1.6-1.046h-2.684v-5.765a1.749 1.749 0 0 0 -1.75-1.75h-7.518a1.749 1.749 0 0 0 -1.75 1.75v5.765h-29.363v-5.765a1.75 1.75 0 0 0 -1.75-1.75h-7.516a1.75 1.75 0 0 0 -1.75 1.75v5.765h-2.685a1.75 1.75 0 0 0 -1.6 1.046l-12.233 27.823a1.75 1.75 0 0 0 -.147.7v21.286a1.75 1.75 0 0 0 1.75 1.75h81.226a1.749 1.749 0 0 0 1.75-1.75v-21.282a1.743 1.743 0 0 0 -.148-.7zm-24.033-32.884h4.018v4.015h-4.018zm-40.379 0h4.016v4.015h-4.019zm-5.043 7.515h54.48l10.693 24.323h-75.865zm66.1 45.609h-77.723v-17.786h77.726z"/><path d="m54.5 63h-5.788a1.75 1.75 0 1 0 0 3.5h5.788a1.75 1.75 0 0 0 0-3.5z"/><path d="m66.9 63h-5.794a1.75 1.75 0 0 0 0 3.5h5.794a1.75 1.75 0 0 0 0-3.5z"/><path d="m79.288 63h-5.788a1.75 1.75 0 0 0 0 3.5h5.788a1.75 1.75 0 0 0 0-3.5z"/><path d="m54.5 69.209h-5.788a1.75 1.75 0 0 0 0 3.5h5.788a1.75 1.75 0 0 0 0-3.5z"/><path d="m66.9 69.209h-5.794a1.75 1.75 0 1 0 0 3.5h5.794a1.75 1.75 0 0 0 0-3.5z"/><path d="m79.288 69.209h-5.788a1.75 1.75 0 0 0 0 3.5h5.788a1.75 1.75 0 1 0 0-3.5z"/><path d="m54.5 75.418h-5.788a1.75 1.75 0 0 0 0 3.5h5.788a1.75 1.75 0 0 0 0-3.5z"/><path d="m66.9 75.418h-5.794a1.75 1.75 0 1 0 0 3.5h5.794a1.75 1.75 0 0 0 0-3.5z"/><path d="m79.288 75.418h-5.788a1.75 1.75 0 0 0 0 3.5h5.788a1.75 1.75 0 1 0 0-3.5z"/></svg>