<svg id="Layer_1" height="512" viewBox="0 0 128 128" width="512" xmlns="http://www.w3.org/2000/svg" data-name="Layer 1"><path d="m113.206 43.548h-7.7a7.277 7.277 0 0 0 -6.535-5.5l-33.531-19.334a1.754 1.754 0 0 0 -1.728-.012l-34.672 19.351a7.275 7.275 0 0 0 -6.548 5.5h-7.7a1.751 1.751 0 0 0 -1.75 1.75v62.467a1.751 1.751 0 0 0 1.75 1.75h98.412a1.751 1.751 0 0 0 1.75-1.75v-62.47a1.751 1.751 0 0 0 -1.748-1.752zm-96.662 5.974 4.5 4.5v45.023l-4.5 4.5zm92.437-2.474-4.5 4.5h-80.962l-4.5-4.5zm-45.718 50.972h-25.671l12.836-22.183zm4.044 0-4.5-7.781 11.55-19.961 16.051 27.742zm27.145 0-18.582-32.113a1.75 1.75 0 0 0 -3.029 0l-12.058 20.838-8.841-15.279a1.75 1.75 0 0 0 -3.029 0l-15.365 26.554h-9v-42.972h78.912v42.972zm-70.933 3.5h80.962l4.5 4.5h-89.962zm83.437-2.475v-45.023l4.5-4.5v54.023zm-5.177-55.5h-6.64a3.737 3.737 0 0 1 6.64 0zm-37.228-21.302 29.707 17.132a7.277 7.277 0 0 0 -2.848 4.173h-54.82a7.283 7.283 0 0 0 -2.8-4.138zm-35.011 19.284a3.758 3.758 0 0 1 3.317 2.02h-6.64a3.761 3.761 0 0 1 3.323-2.02z"/><path d="m60.5 57.8a5.813 5.813 0 1 0 5.812 5.812 5.819 5.819 0 0 0 -5.812-5.812zm0 8.125a2.313 2.313 0 1 1 2.312-2.313 2.316 2.316 0 0 1 -2.312 2.311z"/></svg>