<svg id="Layer_1" height="512" viewBox="0 0 128 128" width="512" xmlns="http://www.w3.org/2000/svg" data-name="Layer 1"><path d="m112.3 74.042c.3-3.085.459-6.333.459-9.652v-.78c0-3.319-.155-6.567-.459-9.655a30.461 30.461 0 0 1 1.914-15.207 9.02 9.02 0 0 0 -12.306-11.648 26.555 26.555 0 0 1 -4.663 1.791 33.749 33.749 0 0 1 -12.459.953c-1.1-.111-2.246-.213-3.409-.3-5.465-.437-11.311-.654-17.377-.654-7.361 0-14.548.328-20.782.948a31.3 31.3 0 0 1 -17.125-2.738 9.024 9.024 0 0 0 -12.31 11.648 30.473 30.473 0 0 1 1.917 15.21c-.3 3.085-.459 6.333-.459 9.652v.78c0 3.319.155 6.567.459 9.655a30.461 30.461 0 0 1 -1.914 15.207 9.028 9.028 0 0 0 7.71 12.585c.184.011.367.016.55.016a9.053 9.053 0 0 0 4.05-.949 26.341 26.341 0 0 1 5.536-2.025 34.245 34.245 0 0 1 11.583-.718c3.21.324 6.821.572 10.728.737 3.2.141 6.581.212 10.058.212 7.361 0 14.548-.328 20.782-.948a31.326 31.326 0 0 1 17.125 2.743 9.025 9.025 0 0 0 12.31-11.649 30.47 30.47 0 0 1 -1.918-15.214zm-16.149-41.292a6.618 6.618 0 0 1 -13.176.441c.488.044.989.082 1.465.131a38.288 38.288 0 0 0 11.711-.572zm-63.079 62.26a9.659 9.659 0 0 1 19.123.3c-3.112-.158-6.016-.367-8.634-.632a38.933 38.933 0 0 0 -10.489.332zm75.746-40.71c.293 2.971.442 6.1.442 9.308v.78c0 3.2-.149 6.337-.442 9.3a33.9 33.9 0 0 0 2.182 16.956 5.509 5.509 0 0 1 .421 2.712 5.607 5.607 0 0 1 -5.131 4.983 5.549 5.549 0 0 1 -2.82-.567 34.793 34.793 0 0 0 -19.039-3.1c-6.123.609-13.19.931-20.437.931-2.841 0-5.612-.051-8.274-.147a13.155 13.155 0 0 0 -26.251.38 29.581 29.581 0 0 0 -4.949 1.932 5.524 5.524 0 0 1 -2.817.568 5.61 5.61 0 0 1 -5.137-4.988 5.512 5.512 0 0 1 .434-2.704 33.892 33.892 0 0 0 2.182-16.944c-.293-2.971-.442-6.1-.442-9.308v-.78c0-3.2.149-6.337.442-9.3a33.9 33.9 0 0 0 -2.188-16.953 5.509 5.509 0 0 1 -.421-2.712 5.607 5.607 0 0 1 5.127-4.99c.114-.007.229-.01.342-.01a5.533 5.533 0 0 1 2.478.577 34.773 34.773 0 0 0 19.038 3.1c6.124-.609 13.191-.931 20.438-.931 5.372 0 10.548.182 15.447.523a10.118 10.118 0 0 0 20.227-.536c0-.191-.021-.381-.032-.571a29.612 29.612 0 0 0 3.836-1.584 5.532 5.532 0 0 1 2.817-.568 5.61 5.61 0 0 1 5.137 4.988 5.512 5.512 0 0 1 -.428 2.711 33.892 33.892 0 0 0 -2.182 16.944z"/><path d="m33.385 41.114a22.677 22.677 0 0 0 -10.01 18.779v8.214a1.75 1.75 0 0 0 3.5 0v-8.214a19.176 19.176 0 0 1 8.473-15.88 1.751 1.751 0 0 0 -1.963-2.9z"/><path d="m102.875 66.357a1.75 1.75 0 0 0 -1.75 1.75 19.076 19.076 0 0 1 -5.188 13.075 1.75 1.75 0 0 0 2.554 2.393 22.564 22.564 0 0 0 6.134-15.468 1.75 1.75 0 0 0 -1.75-1.75z"/><path d="m58.25 42.417a7.833 7.833 0 1 0 7.833 7.833 7.842 7.842 0 0 0 -7.833-7.833zm0 12.166a4.333 4.333 0 1 1 4.333-4.333 4.337 4.337 0 0 1 -4.333 4.333z"/></svg>