<svg id="Layer_1" height="512" viewBox="0 0 128 128" width="512" xmlns="http://www.w3.org/2000/svg" data-name="Layer 1"><path d="m107.125 24.271c0-6.4-2.794-11.227-6.5-11.227h-73.25c-3.706 0-6.5 4.827-6.5 11.227v79.4a1.749 1.749 0 0 0 1.75 1.75h3.75v7.789a1.75 1.75 0 1 0 3.5 0v-7.789h4.875v7.789a1.75 1.75 0 1 0 3.5 0v-7.789h4.875v7.789a1.75 1.75 0 1 0 3.5 0v-7.789h4.875v7.789a1.75 1.75 0 1 0 3.5 0v-7.789h4.875v7.789a1.75 1.75 0 1 0 3.5 0v-7.789h4.875v7.789a1.75 1.75 0 1 0 3.5 0v-7.789h4.875v7.789a1.75 1.75 0 1 0 3.5 0v-7.789h4.875v7.789a1.75 1.75 0 1 0 3.5 0v-7.789h4.875v7.789a1.75 1.75 0 1 0 3.5 0v-7.789h3.75a1.749 1.749 0 0 0 1.75-1.75v-68.563c2.8-1.257 4.75-5.493 4.75-10.837zm-8.788 0c0 4.647-1.806 7.729-3 7.729h-2.172a16.534 16.534 0 0 0 1.71-7.729 16.528 16.528 0 0 0 -1.71-7.727h2.172c1.194 0 3 3.082 3 7.727zm-58.525 77.646v-66.417h43.625v66.417zm-4.937-85.373c1.194 0 3 3.082 3 7.727s-1.806 7.729-3 7.729h-2.71a16.534 16.534 0 0 0 1.71-7.729 16.528 16.528 0 0 0 -1.71-7.727zm6.962 0c1.194 0 3 3.082 3 7.727s-1.806 7.729-3 7.729h-2.172a16.534 16.534 0 0 0 1.71-7.729 16.528 16.528 0 0 0 -1.71-7.727zm46.538 0c1.194 0 3 3.082 3 7.727s-1.806 7.729-3 7.729h-41.748a16.534 16.534 0 0 0 1.71-7.729 16.528 16.528 0 0 0 -1.71-7.727zm-52.063 18.956v66.417h-2.875v-66.417zm50.625 66.417v-66.417h2.875v66.417zm-59.562-85.373c1.194 0 3 3.082 3 7.727s-1.806 7.729-3 7.729-3-3.082-3-7.729 1.806-7.727 3-7.727zm-3 17.762a4.573 4.573 0 0 0 3 1.194h2.562v66.417h-5.562zm68.937 67.611v-66.417h5.563v66.417zm7.313-69.917h-.5a16.534 16.534 0 0 0 1.71-7.729 16.528 16.528 0 0 0 -1.71-7.727h.5c1.194 0 3 3.082 3 7.727s-1.806 7.729-3 7.729z"/><path d="m63.75 49.744a1.75 1.75 0 0 0 -3.023 0l-9.627 16.5a1.75 1.75 0 0 0 0 1.764l9.625 16.5a1.75 1.75 0 0 0 3.023 0l9.625-16.5a1.755 1.755 0 0 0 0-1.764zm-1.512 30.409-7.6-13.027 7.6-13.027 7.6 13.027z"/></svg>