<?xml version="1.0"?>
<svg xmlns="http://www.w3.org/2000/svg" id="Layer_1" data-name="Layer 1" viewBox="0 0 128 128" width="512" height="512"><title>SINK</title><path d="M102.868,13.044a1.749,1.749,0,0,0-1.75,1.75V34H70V32.491a1.75,1.75,0,0,0-1.75-1.75h-2.5V28.4h5.422a1.75,1.75,0,0,0,1.75-1.75V20.333a1.75,1.75,0,0,0-1.75-1.75H65.75V14.794a1.75,1.75,0,1,0-3.5,0v3.789H56.828a1.75,1.75,0,0,0-1.75,1.75v6.316a1.75,1.75,0,0,0,1.75,1.75H62.25v2.342h-2.5A1.75,1.75,0,0,0,58,32.491V34H26.882V14.794a1.75,1.75,0,0,0-3.5,0V35.75a1.75,1.75,0,0,0,1.75,1.75H58v2.311H33.5a1.75,1.75,0,0,0-1.75,1.75A32.3,32.3,0,0,0,52.7,71.761l-4.77,41.244a1.75,1.75,0,0,0,1.739,1.951H78.333a1.75,1.75,0,0,0,1.739-1.951L75.3,71.762a32.3,32.3,0,0,0,20.948-30.2,1.75,1.75,0,0,0-1.75-1.75H70V37.5h32.868a1.75,1.75,0,0,0,1.75-1.75V14.794A1.75,1.75,0,0,0,102.868,13.044ZM69.422,22.083V24.9H65.75V22.083ZM58.578,24.9V22.083H62.25V24.9ZM76.37,111.456H51.63L56.1,72.828a32.252,32.252,0,0,0,15.8,0ZM64,70.311a28.786,28.786,0,0,1-28.7-27H92.7A28.786,28.786,0,0,1,64,70.311Zm-2.5-30.5v-5.57h5v5.57Z"/></svg>
