<svg id="Layer_1" height="512" viewBox="0 0 128 128" width="512" xmlns="http://www.w3.org/2000/svg" data-name="Layer 1"><path d="m110.932 29.417h-21.039a1.749 1.749 0 0 0 -1.75 1.75v18.583h-2.875v-28.319l5.056-4.887h20.608a1.75 1.75 0 0 0 0-3.5h-21.315a1.751 1.751 0 0 0 -1.216.491l-6.1 5.894-66.449 64.22a1.751 1.751 0 0 0 2.433 2.518l13.662-13.2v17.45h-5.173a1.75 1.75 0 0 0 -1.75 1.75v21.039a1.75 1.75 0 0 0 1.75 1.75h84.158a1.75 1.75 0 0 0 1.75-1.75v-82.039a1.75 1.75 0 0 0 -1.75-1.75zm-29.164 20.333h-3.333v-21.715l3.333-3.222zm-12.914 0a1.749 1.749 0 0 0 -1.754 1.75v18.583h-3.33v-27.883l11.165-10.783v18.333zm-21.041 20.333a1.75 1.75 0 0 0 -1.75 1.75v18.584h-3.782v-27.441l11.16-10.786v17.893zm9.128-21.276 3.333-3.221v24.5h-3.333zm-21.494 20.773 3.334-3.222v24.059h-3.334zm73.735 41.876h-80.658v-17.539h19.289a1.749 1.749 0 0 0 1.75-1.75v-18.584h19.291a1.75 1.75 0 0 0 1.75-1.75v-18.583h19.289a1.75 1.75 0 0 0 1.75-1.75v-18.583h17.539z"/></svg>