<svg id="Layer_1" height="512" viewBox="0 0 128 128" width="512" xmlns="http://www.w3.org/2000/svg" data-name="Layer 1"><path d="m113.206 56.083a1.75 1.75 0 0 0 1.75-1.75v-14a1.75 1.75 0 0 0 -1.75-1.75h-41.432l1.889-9.842a1.751 1.751 0 0 0 -1.719-2.08h-1.021c2.789-3.654 2.99-8.938 3-9.172a1.749 1.749 0 0 0 -2.392-1.681 20.722 20.722 0 0 0 -3.981 2.115 12.9 12.9 0 0 0 -2.221-4.272 1.809 1.809 0 0 0 -2.652 0 12.9 12.9 0 0 0 -2.221 4.272 20.722 20.722 0 0 0 -3.981-2.115 1.749 1.749 0 0 0 -2.392 1.681c.007.235.209 5.524 3 9.172h-1.027a1.751 1.751 0 0 0 -1.719 2.08l1.889 9.842h-41.432a1.75 1.75 0 0 0 -1.75 1.75v14a1.75 1.75 0 0 0 1.75 1.75h4.289v4.481l-6.028 52.442a1.75 1.75 0 0 0 1.739 1.95h5.039a1.751 1.751 0 0 0 1.718-1.412l3.514-17.867h77.87l3.514 17.867a1.751 1.751 0 0 0 1.718 1.412h5.039a1.75 1.75 0 0 0 1.739-1.95l-6.028-52.442v-4.481zm-53.006-31.126-1.312 1.158 1.236-1.246a10.556 10.556 0 0 1 -2.056-4.327 15.381 15.381 0 0 1 2.3 1.762 1.75 1.75 0 0 0 2.981-1.089 10.528 10.528 0 0 1 .651-2.847 10.551 10.551 0 0 1 .649 2.847 1.751 1.751 0 0 0 2.977 1.093 15.324 15.324 0 0 1 2.308-1.766 10.535 10.535 0 0 1 -2.055 4.327l1.321 1.151-1.4-1.063a5.1 5.1 0 0 1 -7.608 0zm-.478 13.248-1.544-8.044h11.648l-1.544 8.045a.976.976 0 0 1 -.881.377h-6.801a.973.973 0 0 1 -.882-.378zm-43.178 3.878h94.912v10.5h-94.912zm1.85 69.373h-1.637l5.637-49.039h5.645l-6.128 31.154v.007zm7.359-19.279 5.853-29.76h64.788l5.853 29.76zm83.853 19.279-3.516-17.878v-.007l-6.129-31.154h5.645l5.637 49.039zm-4.189-52.539h-82.834v-2.834h82.834z"/></svg>