<svg id="Layer_1" height="512" viewBox="0 0 128 128" width="512" xmlns="http://www.w3.org/2000/svg" data-name="Layer 1"><path d="m114.956 59.534c0-9.02-2.966-16.33-7.74-19.076-2.081-1.2-5.493-2.085-9.915.484a1.343 1.343 0 0 0 -.119.077l-10.456 7.273a50.739 50.739 0 0 1 -.016-10.176h1.4a1.749 1.749 0 0 0 1.75-1.75v-8.019a1.749 1.749 0 0 0 -1.75-1.75h-1.866v-4.884a1.749 1.749 0 0 0 -1.75-1.75h-8.519a8.106 8.106 0 0 0 -15.831 0h-8.52a1.749 1.749 0 0 0 -1.75 1.75v4.887h-1.863a1.749 1.749 0 0 0 -1.75 1.75v8.019a1.749 1.749 0 0 0 1.75 1.75h1.4a52.269 52.269 0 0 1 -6.633 30.815l-5.978-7.134a23.607 23.607 0 0 0 -18.14-8.468h-3.866a1.751 1.751 0 0 0 -1.334 2.878l3.286 3.867v3.713a1.749 1.749 0 0 0 1.75 1.75 9.585 9.585 0 0 1 7.961 4.237l9.995 14.847a32.09 32.09 0 0 0 -.265 4.093 31.655 31.655 0 0 0 12.524 25.32 1.748 1.748 0 0 0 1.063.36h36.57a1.744 1.744 0 0 0 1.063-.36 31.634 31.634 0 0 0 12.493-24.237c9.577-4.991 15.056-15.933 15.056-30.266zm-46.896-42.434a4.613 4.613 0 0 1 4.261 2.86h-8.521a4.615 4.615 0 0 1 4.26-2.86zm-14.686 6.36h29.37v3.14h-29.37zm-3.613 6.64h36.6v4.519h-36.6zm35.98 80.8h-35.364a28.168 28.168 0 0 1 -10.69-22.18 28.725 28.725 0 0 1 .322-4.254 1.743 1.743 0 0 0 -.28-1.238l-10.369-15.406a13.073 13.073 0 0 0 -9.114-5.665v-2.722a1.748 1.748 0 0 0 -.416-1.135l-1.253-1.475h.085a20.109 20.109 0 0 1 15.456 7.216l7.559 9.024a1.75 1.75 0 0 0 2.824-.194 55.935 55.935 0 0 0 8.427-34.757h30.263a54.457 54.457 0 0 0 .409 13.307 1.713 1.713 0 0 0 .068.423 56.625 56.625 0 0 0 8.276 21.568 28.36 28.36 0 0 1 -6.203 37.488zm14.046-25.05a31.689 31.689 0 0 0 -4.9-14.327 53.185 53.185 0 0 1 -7.617-19.347l11.85-8.242c2.364-1.358 4.5-1.507 6.351-.442 3.58 2.059 5.985 8.506 5.985 16.042 0 15.812-6.518 23.056-11.669 26.313z"/></svg>