<?xml version="1.0"?>
<svg xmlns="http://www.w3.org/2000/svg" id="Layer_1" data-name="Layer 1" viewBox="0 0 128 128" width="512" height="512"><title>TOILET</title><path d="M101.25,13.166H26.75A1.75,1.75,0,0,0,25,14.916V25.25A1.75,1.75,0,0,0,26.75,27H28V52.5a1.75,1.75,0,0,0,1.75,1.75h7.009a40.737,40.737,0,0,0,1.052,4.833H29.333a1.75,1.75,0,0,0-1.75,1.75v7.23a1.751,1.751,0,0,0,1.75,1.75h2.529a32.19,32.19,0,0,0,13.965,24.8L43.441,112.98a1.749,1.749,0,0,0,1.735,1.976H82.824a1.749,1.749,0,0,0,1.735-1.976L82.173,94.611a32.19,32.19,0,0,0,13.965-24.8h2.529a1.751,1.751,0,0,0,1.75-1.75v-7.23a1.75,1.75,0,0,0-1.75-1.75H90.193a40.777,40.777,0,0,0,1.051-4.833H98.25A1.75,1.75,0,0,0,100,52.5V27h1.25A1.75,1.75,0,0,0,103,25.25V14.916A1.75,1.75,0,0,0,101.25,13.166Zm-1.75,3.5V23.5H83.78a29.028,29.028,0,0,0-7.615-6.834Zm-71,0H51.835A29.028,29.028,0,0,0,44.22,23.5H28.5Zm3,34.084V27H41.794A40.067,40.067,0,0,0,36.25,47.666c0,1.036.043,2.063.115,3.084Zm49.332,60.706H47.168L49.1,96.58a32.082,32.082,0,0,0,29.8,0ZM64,96.75A28.721,28.721,0,0,1,35.371,69.813H92.629A28.721,28.721,0,0,1,64,96.75ZM96.917,66.313H31.083v-3.73H96.917ZM47.75,47.666c0-12.468,7.441-23,16.25-23s16.25,10.532,16.25,23A29.673,29.673,0,0,1,78,59.083H50A29.673,29.673,0,0,1,47.75,47.666Zm34,11.417a33.446,33.446,0,0,0,2-11.417c0-14.364-9.044-26.5-19.75-26.5S44.25,33.3,44.25,47.666a33.446,33.446,0,0,0,2,11.417H41.458A38.329,38.329,0,0,1,39.75,47.666c0-17.094,10.878-31,24.25-31s24.25,13.906,24.25,31a38.354,38.354,0,0,1-1.71,11.417ZM96.5,50.75H91.636c.072-1.021.114-2.048.114-3.084A40.067,40.067,0,0,0,86.206,27H96.5Z"/></svg>
