<svg id="Layer_1" height="512" viewBox="0 0 128 128" width="512" xmlns="http://www.w3.org/2000/svg" data-name="Layer 1"><path d="m113.206 13.044h-98.412a1.75 1.75 0 0 0 -1.75 1.75v11.854a1.749 1.749 0 0 0 1.75 1.75h11.906v66.408a1.75 1.75 0 0 0 1.75 1.75h2.394v4.724a1.75 1.75 0 0 0 3.5 0v-4.724h5.417v4.724a1.75 1.75 0 0 0 3.5 0v-4.724h2.427l.034 10.181a1.749 1.749 0 0 0 1.75 1.744h2.172v4.725a1.75 1.75 0 0 0 3.5 0v-4.725h5.417v4.725a1.75 1.75 0 0 0 3.5 0v-4.725h5.417v4.725a1.75 1.75 0 1 0 3.5 0v-4.725h5.417v4.725a1.75 1.75 0 0 0 3.5 0v-4.725h5.415v4.725a1.75 1.75 0 1 0 3.5 0v-4.725h5.417v4.725a1.75 1.75 0 0 0 3.5 0v-4.725h1.825a1.749 1.749 0 0 0 1.75-1.75v-78.331h11.9a1.749 1.749 0 0 0 1.75-1.75v-11.856a1.75 1.75 0 0 0 -1.746-1.75zm-25.506 3.5a10.115 10.115 0 0 1 10.1 10.1v55.278h-48.662l-.029-8.913a1.575 1.575 0 0 0 0-.951l-.151-45.715a13.25 13.25 0 0 0 -4.339-9.8zm-57.5 57.745h15.413l.025 7.633h-15.438zm18.975 18.767-.026-7.634h48.651v7.634zm-32.631-76.512h19.112a9.805 9.805 0 0 1 9.68 8.354h-28.792zm28.918 11.856.138 42.389h-15.4v-42.389zm-15.262 64.656v-7.634h15.45l.025 7.634zm19.016 11.925-.028-8.425h48.612v8.425zm62.24-80.081h-10.28a13.571 13.571 0 0 0 -4.4-8.354h14.681z"/></svg>