<svg id="Layer_1" height="512" viewBox="0 0 128 128" width="512" xmlns="http://www.w3.org/2000/svg" data-name="Layer 1"><path d="m72.634 28.5a1.749 1.749 0 0 0 -2.475 0l-14.793 14.794a1.75 1.75 0 0 0 2.475 2.475l14.793-14.793a1.751 1.751 0 0 0 0-2.476z"/><path d="m70.159 39.713-5.6 5.6a1.749 1.749 0 1 0 2.474 2.474l5.6-5.6a1.75 1.75 0 0 0 -2.475-2.475z"/><path d="m113.206 74.875h-32.456v-4.375a1.749 1.749 0 0 0 -1.75-1.75h-1.833v-4.5h24.833a1.749 1.749 0 0 0 1.75-1.75v-47.706a1.749 1.749 0 0 0 -1.75-1.75h-76a1.749 1.749 0 0 0 -1.75 1.75v47.706a1.749 1.749 0 0 0 1.75 1.75h24.833v4.5h-1.833a1.749 1.749 0 0 0 -1.75 1.75v4.375h-32.456a1.749 1.749 0 0 0 -1.75 1.75v25.491a1.749 1.749 0 0 0 1.75 1.75h8.635l-3.4 8.7a1.75 1.75 0 0 0 1.63 2.387h5.333a1.749 1.749 0 0 0 1.5-.849l6.157-10.241h58.7l6.157 10.241a1.749 1.749 0 0 0 1.5.849h5.333a1.75 1.75 0 0 0 1.63-2.387l-3.4-8.7h8.635a1.749 1.749 0 0 0 1.75-1.75v-25.491a1.749 1.749 0 0 0 -1.748-1.75zm-85.456-51.943h72.5v31.429h-72.5zm72.5-6.388v2.888h-72.5v-2.888zm-72.5 41.317h72.5v2.889h-72.5zm26.583 6.389h19.334v4.5h-19.334zm-3.583 8h26.5v2.625h-26.5zm-24.75 39.206h-1.78l2.965-7.59h3.378zm66.591-11.09h-57.183v-13.783h57.184zm11.187 11.09h-1.778l-4.563-7.59h3.378zm7.677-11.09h-15.363v-15.533a1.749 1.749 0 0 0 -1.75-1.75h-60.684a1.749 1.749 0 0 0 -1.75 1.75v15.533h-15.364v-21.991h94.912z"/><path d="m64 97.777a6.862 6.862 0 0 0 6.854-6.854 1.749 1.749 0 0 0 -1.75-1.75h-10.204a1.749 1.749 0 0 0 -1.75 1.75 6.862 6.862 0 0 0 6.85 6.854zm2.861-5.1a3.354 3.354 0 0 1 -5.722 0z"/></svg>