<svg id="Layer_1" height="512" viewBox="0 0 128 128" width="512" xmlns="http://www.w3.org/2000/svg" data-name="Layer 1"><path d="m114.888 112.722-3-10.421a1.751 1.751 0 0 0 -1.682-1.266h-8.813l-4.618-14.887a1.75 1.75 0 0 0 -1.675-1.231h-.58v-25.229a1.75 1.75 0 0 0 -1.75-1.75h-.916v-23.717a21.177 21.177 0 1 0 -42.354 0v23.717h-2.5a1.781 1.781 0 0 0 -.4.048c-.005 0-.009 0-.013 0a43.663 43.663 0 0 0 -33.547 42.577v5.331a1.75 1.75 0 0 0 1.75 1.75h20.635a9.06 9.06 0 0 0 17.779 0h2.3a1.75 1.75 0 0 0 1.75-1.75v-46.206a1.749 1.749 0 0 0 -1.75-1.75h-2.504v-23.717a17.677 17.677 0 1 1 35.354 0v23.717h-.917a1.749 1.749 0 0 0 -1.75 1.75v25.229h-.587a1.75 1.75 0 0 0 -1.672 1.231l-4.618 14.887h-8.81a1.751 1.751 0 0 0 -1.682 1.266l-3 10.421a1.75 1.75 0 0 0 1.682 2.234h46.206a1.75 1.75 0 0 0 1.682-2.234zm-98.344-12.159a40.159 40.159 0 0 1 28.706-38.584v34.9a9.053 9.053 0 0 0 -9.825 7.264h-18.881zm27.77 10.893a5.563 5.563 0 1 1 5.563-5.562 5.568 5.568 0 0 1 -5.563 5.562zm9.436-7.312h-.55a9.083 9.083 0 0 0 -4.45-6.144v-36.562h5zm35.437-42.706h1.833v23.479h-1.833zm-2.794 26.979h7.421l3.914 12.618h-15.249zm-17.068 23.039 1.992-6.921h37.572l1.992 6.921z"/></svg>