<svg id="Layer_1" height="512" viewBox="0 0 128 128" width="512" xmlns="http://www.w3.org/2000/svg" data-name="Layer 1"><path d="m102.056 13.044h-76.112a4.971 4.971 0 0 0 -4.965 4.965v83.776a4.956 4.956 0 0 0 3.4 4.687v6.734a1.751 1.751 0 0 0 1.75 1.75h75.75a1.751 1.751 0 0 0 1.75-1.75v-6.734a4.956 4.956 0 0 0 3.4-4.687v-83.776a4.971 4.971 0 0 0 -4.973-4.965zm0 90.206h-76.112a1.466 1.466 0 0 1 -1.465-1.465v-69.7h79.042v69.7a1.466 1.466 0 0 1 -1.465 1.465zm-77.577-85.241a1.466 1.466 0 0 1 1.465-1.465h76.112a1.466 1.466 0 0 1 1.465 1.465v10.576h-79.042zm3.4 93.447v-4.706h72.25v4.706z"/><path d="m64 40.224a27.776 27.776 0 1 0 27.776 27.776 27.808 27.808 0 0 0 -27.776-27.776zm0 52.052a24.276 24.276 0 1 1 24.276-24.276 24.3 24.3 0 0 1 -24.276 24.276z"/><path d="m85.024 67.88a21.023 21.023 0 0 0 -42.046-.035v.046c0 .037-.005.072-.005.109a21.03 21.03 0 0 0 42.06 0c0-.022 0-.043 0-.064zm-21.024-17.41a17.542 17.542 0 0 1 17.513 17.2c-1.083 2.607-4.05 4.713-7.856 5.524-4.657.993-9.215-.119-11.9-2.9-5.036-5.227-11.616-5.077-15.133-4.51a17.545 17.545 0 0 1 17.376-15.314zm0 35.06a17.543 17.543 0 0 1 -17.462-16.178c2.549-.508 8.439-1.06 12.7 3.362a15.325 15.325 0 0 0 11.109 4.329 19.406 19.406 0 0 0 4.038-.43 17.206 17.206 0 0 0 6.015-2.478 17.545 17.545 0 0 1 -16.4 11.395z"/><path d="m97.905 18.125h-14.625a1.751 1.751 0 0 0 -1.75 1.75v4.875a1.751 1.751 0 0 0 1.75 1.75h14.625a1.75 1.75 0 0 0 1.75-1.75v-4.875a1.75 1.75 0 0 0 -1.75-1.75zm-1.75 4.875h-11.125v-1.375h11.125z"/><path d="m33.75 18.125h-4.375a1.75 1.75 0 0 0 0 3.5h4.375a1.75 1.75 0 0 0 0-3.5z"/><path d="m33.75 23.355h-4.375a1.75 1.75 0 0 0 0 3.5h4.375a1.75 1.75 0 0 0 0-3.5z"/><path d="m44.813 18.125h-4.375a1.75 1.75 0 0 0 0 3.5h4.375a1.75 1.75 0 0 0 0-3.5z"/><path d="m44.813 23.355h-4.375a1.75 1.75 0 0 0 0 3.5h4.375a1.75 1.75 0 0 0 0-3.5z"/></svg>