<?xml version="1.0" encoding="utf-8"?>
<!-- Generator: Adobe Illustrator 16.0.0, SVG Export Plug-In . SVG Version: 6.00 Build 0)  -->
<!DOCTYPE svg PUBLIC "-//W3C//DTD SVG 1.1//EN" "http://www.w3.org/Graphics/SVG/1.1/DTD/svg11.dtd">
<svg version="1.1" id="Capa_1" xmlns="http://www.w3.org/2000/svg" xmlns:xlink="http://www.w3.org/1999/xlink" x="0px" y="0px"
	 width="841.891px" height="595.281px" viewBox="0 0 841.891 595.281" enable-background="new 0 0 841.891 595.281"
	 xml:space="preserve">
<g>
	<g>
		<path fill="#05B59D" d="M420.945,0c-110.589,0-200.559,89.97-200.559,200.559c0,48.791,17.729,95.813,49.922,132.404
			c30.205,34.332,71.075,57.265,115.757,65.114v56.522h-36.042c-19.233,0-34.88,15.646-34.88,34.879
			c0,9.316,3.628,18.076,10.216,24.664s15.348,10.216,24.664,10.216h36.042v36.043c0,19.232,15.647,34.88,34.88,34.88
			s34.88-15.647,34.88-34.88v-36.043h36.042c9.317,0,18.076-3.628,24.664-10.216c6.587-6.589,10.216-15.348,10.216-24.664
			c0-19.232-15.647-34.879-34.88-34.879h-36.042v-56.521c44.682-7.85,85.551-30.783,115.756-65.113
			c32.193-36.593,49.923-83.615,49.923-132.406C621.504,89.969,531.534,0,420.945,0z M445.926,381.973
			c-4.32,0.59-7.541,4.28-7.541,8.64v72.706c0,4.815,3.903,8.72,8.721,8.72h44.762c9.616,0,17.44,7.823,17.44,17.439
			c0,4.658-1.815,9.038-5.109,12.333c-3.294,3.294-7.672,5.107-12.331,5.107h-44.762c-4.817,0-8.721,3.904-8.721,8.72v44.763
			c0,9.616-7.823,17.439-17.439,17.439s-17.44-7.823-17.44-17.439v-44.763c0-4.815-3.902-8.72-8.72-8.72h-44.762
			c-4.659,0-9.038-1.813-12.332-5.107c-3.293-3.295-5.108-7.675-5.108-12.333c0-9.616,7.823-17.439,17.44-17.439h44.762
			c4.817,0,8.72-3.904,8.72-8.72v-72.706c0-4.359-3.222-8.05-7.541-8.64c-90.153-12.295-158.138-90.286-158.138-181.415
			c0-100.972,82.146-183.118,183.119-183.118c100.972,0,183.118,82.146,183.118,183.118
			C604.063,291.687,536.08,369.678,445.926,381.973z"/>
	</g>
</g>
<g>
	<g>
		<path fill="#05B59D" d="M420.945,52.32c-33.258,0-64.691,10.768-90.9,31.142c-3.803,2.955-4.489,8.434-1.533,12.235
			c2.955,3.802,8.435,4.488,12.235,1.532c23.121-17.971,50.853-27.47,80.198-27.47c72.122,0,130.799,58.676,130.799,130.799
			s-58.677,130.799-130.799,130.799s-130.799-58.676-130.799-130.799c0-29.347,9.499-57.078,27.471-80.198
			c2.956-3.803,2.269-9.28-1.533-12.235c-3.801-2.955-9.279-2.271-12.236,1.532c-20.373,26.209-31.142,57.643-31.142,90.901
			c0,81.739,66.5,148.239,148.239,148.239s148.238-66.5,148.238-148.239S502.684,52.32,420.945,52.32z"/>
	</g>
</g>
</svg>
