<?xml version="1.0" encoding="utf-8"?>
<!-- Generator: Adobe Illustrator 16.0.0, SVG Export Plug-In . SVG Version: 6.00 Build 0)  -->
<!DOCTYPE svg PUBLIC "-//W3C//DTD SVG 1.1//EN" "http://www.w3.org/Graphics/SVG/1.1/DTD/svg11.dtd">
<svg version="1.1" id="Layer_1" xmlns="http://www.w3.org/2000/svg" xmlns:xlink="http://www.w3.org/1999/xlink" x="0px" y="0px"
	 width="841.891px" height="595.281px" viewBox="0 0 841.891 595.281" enable-background="new 0 0 841.891 595.281"
	 xml:space="preserve">
<g>
	<g>
		<g>
			<path fill="#05B59D" d="M548.083,135.258c3.453-3.453,3.453-9.053,0-12.506c-3.452-3.453-9.053-3.453-12.506,0l-34.18,34.181
				c-3.193,3.193-3.468,8.283-0.634,11.801c24.71,30.668,37.224,69.374,35.233,108.986c-2.003,39.896-18.633,77.395-46.825,105.587
				c-26.303,26.303-59.638,42.273-96.403,46.187c-4.498,0.479-7.909,4.271-7.909,8.793v47.15c0,4.884,3.959,8.843,8.844,8.843
				h55.605v18.865h-55.605c-4.885,0-8.844,3.959-8.844,8.844v55.604h-18.865v-55.604c0-4.885-3.959-8.844-8.843-8.844h-55.606
				v-18.865h55.606c4.884,0,8.843-3.959,8.843-8.843v-47.15c0-4.521-3.412-8.315-7.908-8.793
				c-36.766-3.913-70.1-19.883-96.404-46.187c-42.306-42.309-57.565-104.213-39.819-161.558c1.442-4.666-1.167-9.618-5.834-11.063
				c-4.664-1.443-9.618,1.168-11.063,5.834c-19.689,63.631-2.748,132.332,44.212,179.291c27.298,27.299,61.43,44.571,99.13,50.252
				v30.53h-55.603c-4.885,0-8.843,3.958-8.843,8.843v36.552c0,4.884,3.958,8.843,8.843,8.843h55.605v55.605
				c0,4.884,3.959,8.843,8.843,8.843h36.552c4.884,0,8.843-3.959,8.842-8.843v-55.605h55.605c4.885,0,8.844-3.959,8.844-8.843
				v-36.552c0-4.885-3.959-8.843-8.844-8.843h-55.605v-30.53c37.699-5.68,71.833-22.952,99.131-50.252
				c31.298-31.297,49.758-72.922,51.983-117.205c2.074-41.28-10.057-81.686-34.27-114.657L548.083,135.258z"/>
			<path fill="#05B59D" d="M375.43,411.555c37.927,0,73.585-14.77,100.403-41.59c55.363-55.363,55.363-145.445,0-200.809
				c-26.818-26.817-62.477-41.589-100.403-41.589s-73.585,14.769-100.403,41.589c-55.363,55.363-55.363,145.445,0,200.809
				C301.844,396.785,337.502,411.555,375.43,411.555z M287.531,181.664c23.479-23.479,54.695-36.408,87.899-36.408
				c33.203,0,64.418,12.931,87.898,36.408c48.466,48.468,48.466,127.329,0,175.797c-23.478,23.479-54.695,36.408-87.898,36.408
				c-33.204,0-64.42-12.932-87.899-36.408C239.064,308.994,239.064,230.132,287.531,181.664z"/>
			<path fill="#05B59D" d="M636.149,0H499.518c-4.884,0-8.843,3.959-8.843,8.844v36.552c0,4.884,3.959,8.843,8.843,8.843h52.884
				l-71.343,71.341c-30.675-22.641-67.023-34.563-105.629-34.563c-47.692,0-92.528,18.572-126.25,52.295
				c-11.27,11.27-20.959,23.946-28.798,37.679c-2.421,4.241-0.944,9.643,3.296,12.064c1.383,0.791,2.889,1.165,4.375,1.165
				c3.07,0,6.056-1.601,7.686-4.46c7.06-12.363,15.788-23.783,25.945-33.94c30.381-30.381,70.776-47.114,113.743-47.114
				c37.199,0,72.064,12.279,100.827,35.51c3.519,2.842,8.613,2.571,11.811-0.627l91.939-91.938c2.528-2.529,3.286-6.333,1.917-9.638
				c-1.368-3.306-4.594-5.459-8.17-5.459h-65.39V17.686h118.944v118.947h-18.865V71.243c0-3.576-2.154-6.802-5.459-8.17
				c-3.303-1.369-7.107-0.612-9.638,1.916l-36.543,36.544c-3.453,3.451-3.453,9.052,0,12.505c3.452,3.453,9.052,3.452,12.506,0
				l21.447-21.447v52.884c0,4.884,3.959,8.843,8.843,8.843h36.552c4.885,0,8.844-3.959,8.844-8.843V8.844
				C644.993,3.959,641.033,0,636.149,0z"/>
		</g>
	</g>
</g>
</svg>
