<?xml version="1.0" encoding="utf-8"?>
<!-- Generator: Adobe Illustrator 16.0.0, SVG Export Plug-In . SVG Version: 6.00 Build 0)  -->
<!DOCTYPE svg PUBLIC "-//W3C//DTD SVG 1.1//EN" "http://www.w3.org/Graphics/SVG/1.1/DTD/svg11.dtd">
<svg version="1.1" id="Layer_1" xmlns="http://www.w3.org/2000/svg" xmlns:xlink="http://www.w3.org/1999/xlink" x="0px" y="0px"
	 width="841.891px" height="595.281px" viewBox="0 0 841.891 595.281" enable-background="new 0 0 841.891 595.281"
	 xml:space="preserve">
<g>
	<g>
		<g>
			<path fill="#05B59D" d="M175.363,298.277c-4.786-1.047-9.504,1.981-10.551,6.76c-15.329,70.029,5.673,141.992,56.179,192.499
				c39.419,39.419,91.828,61.127,147.572,61.127c55.745,0,108.154-21.708,147.574-61.127
				c39.418-39.419,61.126-91.828,61.126-147.572c0-55.746-21.708-108.155-61.126-147.573
				c-39.419-39.418-91.828-61.126-147.574-61.126c-55.745,0-108.154,21.708-147.572,61.126
				c-20.484,20.485-36.188,44.466-46.677,71.277c-1.782,4.558,0.466,9.695,5.022,11.478c4.559,1.783,9.695-0.467,11.478-5.022
				c9.593-24.521,23.96-46.459,42.704-65.203c36.072-36.07,84.032-55.937,135.045-55.937s98.973,19.863,135.044,55.937
				c36.072,36.07,55.938,84.03,55.938,135.044c0,51.012-19.864,98.971-55.938,135.044c-36.069,36.069-84.029,55.937-135.044,55.937
				c-51.014,0-98.971-19.864-135.043-55.937c-46.216-46.219-65.432-112.079-51.399-176.183
				C183.168,304.047,180.141,299.324,175.363,298.277z"/>
			<path fill="#05B59D" d="M709.669,0H520.826c-4.895,0-8.86,3.967-8.86,8.859v36.618c0,4.893,3.966,8.859,8.86,8.859H625.77
				L521.766,158.342c-43.274-34.684-97.355-53.695-153.201-53.695c-65.526,0-127.131,25.518-173.465,71.852
				c-95.649,95.648-95.649,251.282,0,346.931c46.334,46.334,107.938,71.853,173.465,71.853s127.132-25.519,173.465-71.854
				s71.851-107.939,71.851-173.465c0-11.181-0.754-22.424-2.242-33.415c-0.658-4.849-5.125-8.242-9.969-7.59
				c-4.85,0.657-8.247,5.12-7.59,9.969c1.383,10.206,2.083,20.647,2.083,31.034c0,60.795-23.674,117.949-66.663,160.938
				c-42.986,42.988-100.141,66.662-160.937,66.662c-60.794,0-117.949-23.674-160.937-66.662c-88.74-88.739-88.74-233.131,0-321.873
				c42.987-42.988,100.143-66.662,160.937-66.662c54.373,0,106.931,19.415,147.988,54.669c3.514,3.019,8.76,2.817,12.036-0.457
				L653.423,51.741c2.534-2.534,3.292-6.345,1.92-9.654c-1.37-3.311-4.602-5.469-8.186-5.469H529.685v-18.9h171.124v171.125H681.91
				V71.369c0-3.582-2.157-6.813-5.469-8.186s-7.12-0.612-9.654,1.921L541.95,189.938c-3.275,3.275-3.476,8.521-0.457,12.036
				c21.658,25.224,37.177,54.106,46.13,85.847c1.327,4.71,6.222,7.452,10.932,6.123c4.71-1.328,7.45-6.222,6.123-10.932
				c-8.917-31.613-23.866-60.592-44.487-86.255L664.192,92.757v104.945c0,4.893,3.966,8.859,8.86,8.859h36.617
				c4.894,0,8.859-3.967,8.859-8.859V8.859C718.527,3.967,714.562,0,709.669,0z"/>
		</g>
	</g>
</g>
</svg>
