<?xml version="1.0" encoding="utf-8"?>
<!-- Generator: Adobe Illustrator 23.0.0, SVG Export Plug-In . SVG Version: 6.00 Build 0)  -->
<svg version="1.1" id="Layer_1" xmlns="http://www.w3.org/2000/svg" xmlns:xlink="http://www.w3.org/1999/xlink" x="0px" y="0px"
	 viewBox="0 0 128 128" style="enable-background:new 0 0 128 128;" xml:space="preserve">
<style type="text/css">
	.st0{fill:#8EDDD3;}
	.st1{fill:#75D5C7;}
	.st2{fill:#E3E0D4;}
	.st3{fill:#C7C1AA;}
	.st4{fill:#2F1D22;}
	.st5{fill:#534447;}
</style>
<g>
	<g>
		<g>
			<path class="st0" d="M28.8,105.3l-10.5,3.2c-1.5,0.4-3-0.4-3.5-1.8L6.1,78.2c-0.4-1.5,0.4-3,1.8-3.5l10.5-3.2
				c1.5-0.4,3,0.4,3.5,1.8l8.8,28.5C31.1,103.3,30.3,104.9,28.8,105.3z"/>
		</g>
		<g>
			<path class="st1" d="M11.3,81l8.4,27.1l-1.2,0.4c-1.5,0.4-3-0.4-3.5-1.8L6.1,78.2c-0.4-1.5,0.4-3,1.8-3.5l10.5-3.2
				c1.5-0.4,3,0.4,3.5,1.8l0.4,1.4l-9.2,2.8C11.6,78,10.8,79.5,11.3,81z"/>
		</g>
		<g>
			<path class="st2" d="M22.8,76.3l24.6-11.1c3.9-1.8,8.3-1.9,12.3-0.4l19.4,7.5c3.1,1.2,4.6,4.7,3.4,7.8v0
				c-1.2,3.1-4.7,4.6-7.8,3.4l-12.5-4.8l11,9.4c2,1.7,4.7,2.4,7.2,2l33.4-5.6c3.6-0.6,7,1.7,7.8,5.2v0c0.8,3.6-1.4,7.2-4.9,8.1
				l-38.5,10c-2.1,0.6-4.4,0.4-6.5-0.4l-19.9-7.7c-2-0.8-4.1-1.1-6.2-0.9l-15.8,1L22.8,76.3z"/>
		</g>
		<g>
			<g>
				<path class="st3" d="M74.9,78.7l-0.4-0.2c-2.3-0.9-4.1,2.1-2.2,3.7l0.6,0.5l1.8,0.7c3.2,1.2,6.9-0.3,8-3.5
					c0.5-1.5,0.4-3.1-0.2-4.4C81.2,78.4,77.9,79.8,74.9,78.7z"/>
			</g>
			<g>
				<path class="st3" d="M121.5,88.7c-0.8,2-2.4,3.6-4.7,4.2l-38.5,10c-2.1,0.6-4.4,0.4-6.5-0.4l-19.9-7.7c-2-0.8-4.1-1.1-6.2-0.9
					l-15.8,1l-5.9-19.3l-1.3,0.6l7.2,23.5l15.8-1c2.1-0.1,4.2,0.2,6.2,0.9l19.9,7.7c2.1,0.8,4.3,0.9,6.5,0.4l38.5-10
					c3.6-0.9,5.7-4.5,4.9-8.1C121.7,89.3,121.6,89,121.5,88.7z"/>
			</g>
		</g>
		<g>
			<path class="st4" d="M17.6,109.7c-0.6,0-1.2-0.2-1.8-0.4c-0.9-0.5-1.6-1.3-1.9-2.3L5.1,78.5c-0.3-1-0.2-2,0.3-2.9
				c0.5-0.9,1.3-1.6,2.3-1.9l10.5-3.2c2-0.6,4.2,0.5,4.8,2.5l8.8,28.5c0.6,2-0.5,4.2-2.5,4.8l0,0l-10.5,3.2
				C18.3,109.6,17.9,109.7,17.6,109.7z M19.2,72.4c-0.2,0-0.3,0-0.5,0.1L8.3,75.7c-0.4,0.1-0.8,0.4-1,0.8C7.1,77,7,77.4,7.1,77.9
				l8.8,28.5c0.1,0.4,0.4,0.8,0.8,1c0.4,0.2,0.9,0.3,1.3,0.1l10.5-3.2c0.9-0.3,1.4-1.2,1.1-2.2l-8.8-28.5
				C20.7,72.9,20,72.4,19.2,72.4z M28.8,105.3L28.8,105.3L28.8,105.3z"/>
		</g>
		<g>
			<path class="st4" d="M75.7,109.1c-1.4,0-2.8-0.3-4.2-0.8l-19.9-7.7c-1.8-0.7-3.8-1-5.7-0.9l-15.8,1c-0.5,0-0.9-0.3-1.1-0.7
				l-7.2-23.5c-0.2-0.5,0.1-1.1,0.6-1.3L47,64.2c4.1-1.9,8.9-2,13.2-0.4l19.4,7.5c1.8,0.7,3.1,2,3.9,3.7c0.8,1.7,0.8,3.6,0.1,5.4
				c-1.4,3.6-5.5,5.4-9.1,4l-6.7-2.6l6.3,5.3c1.8,1.5,4.1,2.1,6.4,1.8l33.4-5.6c4.1-0.7,8.1,2,9,6c0.9,4.2-1.6,8.3-5.7,9.4l-38.5,10
				C77.7,109,76.7,109.1,75.7,109.1z M46.8,97.7c1.9,0,3.8,0.4,5.6,1l19.9,7.7c1.9,0.7,3.9,0.8,5.8,0.3l38.5-10
				c3-0.8,4.9-3.8,4.2-6.8c-0.7-3-3.6-4.9-6.6-4.4l-33.4,5.6c-2.9,0.5-5.9-0.3-8.1-2.2l-11-9.4c-0.4-0.3-0.5-0.9-0.2-1.3
				c0.3-0.4,0.8-0.6,1.3-0.4l12.5,4.8c2.5,1,5.4-0.3,6.4-2.8c0.5-1.2,0.4-2.6-0.1-3.8c-0.5-1.2-1.5-2.1-2.7-2.6l-19.4-7.5
				c-3.7-1.4-7.9-1.3-11.5,0.3L24.1,76.9l6.7,21.8l15-1C46.2,97.7,46.5,97.7,46.8,97.7z"/>
		</g>
	</g>
	<g>
		<g>
			<path class="st5" d="M113.3,46.1c0,3.3-1.9,6.1-4.7,7.4c-1.1,0.5-2.3,0.8-3.5,0.8s-2.4-0.3-3.5-0.8c-2.8-1.3-4.7-4.2-4.7-7.4
				c0-3.3,1.9-6.1,4.7-7.4c1.1-0.5,2.3-0.8,3.5-0.8s2.4,0.3,3.5,0.8C111.3,39.9,113.3,42.8,113.3,46.1z"/>
		</g>
		<g>
			<path class="st5" d="M108.5,70.1l-4.4,3.6l-2.6-4V53.5c1.1,0.5,2.3,0.8,3.5,0.8s2.4-0.3,3.5-0.8v4.7l-1.9,1.9l2,2l-2,2.1l1.8,2
				L108.5,70.1z"/>
		</g>
		<g>
			<path class="st5" d="M86.5,61.8L81.1,60l2-4.3L96.9,47c0.1,1.2,0.5,2.3,1.2,3.4c0.7,1.1,1.5,1.9,2.5,2.6l-3.9,2.5l-2.6-0.6
				l-0.6,2.8l-2.9-0.5l-0.7,2.6L86.5,61.8z"/>
		</g>
		<g>
			<path class="st4" d="M105,46.1c-1.7,0-3.1-1.4-3.1-3.1c0-1.7,1.4-3.1,3.1-3.1c1.7,0,3.1,1.4,3.1,3.1
				C108.2,44.7,106.8,46.1,105,46.1z M105,41.9c-0.6,0-1,0.5-1,1c0,0.6,0.5,1,1,1c0.6,0,1-0.5,1-1C106.1,42.3,105.6,41.9,105,41.9z"
				/>
		</g>
		<g>
			<path class="st4" d="M105,55.3c-1.4,0-2.7-0.3-4-0.9c-3.2-1.5-5.3-4.8-5.3-8.4c0-3.6,2.1-6.9,5.3-8.4c2.5-1.2,5.5-1.2,7.9,0
				c3.2,1.5,5.3,4.8,5.3,8.4c0,3.6-2.1,6.9-5.3,8.4C107.8,55,106.4,55.3,105,55.3z M105,38.9c-1.1,0-2.1,0.2-3.1,0.7
				c-2.5,1.2-4.1,3.7-4.1,6.5c0,2.8,1.6,5.3,4.1,6.5c1.9,0.9,4.2,0.9,6.1,0c2.5-1.2,4.1-3.7,4.1-6.5c0-2.8-1.6-5.3-4.1-6.5
				C107.1,39.1,106.1,38.9,105,38.9z"/>
		</g>
		<g>
			<path class="st4" d="M104.1,74.8c-0.1,0-0.1,0-0.2,0c-0.3,0-0.6-0.2-0.7-0.5l-2.6-4c-0.1-0.2-0.2-0.4-0.2-0.6V53.5
				c0-0.4,0.2-0.7,0.5-0.9c0.3-0.2,0.7-0.2,1-0.1c1.9,0.9,4.2,0.9,6.1,0c0.3-0.2,0.7-0.1,1,0.1c0.3,0.2,0.5,0.5,0.5,0.9v4.7
				c0,0.3-0.1,0.5-0.3,0.7l-1.1,1.1l1.3,1.3c0.4,0.4,0.4,1,0,1.5l-1.3,1.4l1.2,1.3c0.2,0.2,0.3,0.4,0.3,0.7l0,4
				c0,0.3-0.1,0.6-0.4,0.8l-4.4,3.6C104.6,74.7,104.3,74.8,104.1,74.8z M102.6,69.4l1.8,2.7l3.1-2.5l0-3.1l-1.5-1.7
				c-0.4-0.4-0.4-1,0-1.4l1.3-1.4l-1.3-1.3c-0.4-0.4-0.4-1.1,0-1.5l1.6-1.6V55c-1.6,0.4-3.3,0.4-4.9,0V69.4z"/>
		</g>
		<g>
			<path class="st4" d="M86.5,62.9c-0.1,0-0.2,0-0.3-0.1L80.8,61c-0.3-0.1-0.5-0.3-0.6-0.6c-0.1-0.3-0.1-0.6,0-0.9l2-4.3
				c0.1-0.2,0.2-0.3,0.4-0.4l13.7-8.6c0.3-0.2,0.7-0.2,1-0.1c0.3,0.2,0.6,0.5,0.6,0.8c0.1,1,0.5,2,1.1,2.9c0.6,0.9,1.3,1.7,2.2,2.2
				c0.3,0.2,0.5,0.5,0.5,0.9c0,0.4-0.2,0.7-0.5,0.9l-3.9,2.5c-0.2,0.1-0.5,0.2-0.8,0.1l-1.5-0.4l-0.4,1.7c-0.1,0.6-0.7,0.9-1.2,0.8
				l-1.9-0.3L90.9,60c-0.1,0.3-0.2,0.5-0.5,0.6l-3.4,2.1C86.9,62.8,86.7,62.9,86.5,62.9z M82.6,59.4l3.8,1.3L89,59l0.6-2.2
				c0.1-0.5,0.7-0.9,1.2-0.8l1.9,0.3l0.4-1.8c0.1-0.3,0.2-0.5,0.5-0.7c0.2-0.1,0.5-0.2,0.8-0.1l2.1,0.5l2.3-1.4
				c-0.6-0.6-1.1-1.2-1.6-1.9c-0.4-0.7-0.8-1.5-1-2.2l-12.2,7.7L82.6,59.4z"/>
		</g>
		<g>
			<path class="st4" d="M105.1,44c-0.8,0-1.6-0.1-2.3-0.2c-0.6-0.1-1-0.7-0.8-1.2c0.1-0.6,0.7-1,1.2-0.8c0.6,0.1,1.3,0.2,2,0.2
				c5.9,0,10.7-4.8,10.7-10.7c0-5.9-4.8-10.7-10.7-10.7s-10.7,4.8-10.7,10.7c0,3.6,1.8,6.9,4.8,8.9c0.5,0.3,0.6,1,0.3,1.5
				c-0.3,0.5-1,0.6-1.5,0.3c-3.6-2.4-5.7-6.4-5.7-10.7c0-7.1,5.8-12.8,12.8-12.8c7.1,0,12.8,5.8,12.8,12.8
				C117.9,38.2,112.2,44,105.1,44z"/>
		</g>
	</g>
</g>
</svg>
