<?xml version="1.0" encoding="utf-8"?>
<!-- Generator: Adobe Illustrator 23.0.0, SVG Export Plug-In . SVG Version: 6.00 Build 0)  -->
<svg version="1.1" id="Layer_1" xmlns="http://www.w3.org/2000/svg" xmlns:xlink="http://www.w3.org/1999/xlink" x="0px" y="0px"
	 viewBox="0 0 128 128" style="enable-background:new 0 0 128 128;" xml:space="preserve">
<style type="text/css">
	.st0{fill:#75D5C7;}
	.st1{fill:#534447;}
	.st2{fill:#2F1D22;}
	.st3{fill:#E3E0D4;}
	.st4{fill:#FFFFFF;}
</style>
<g>
	<g>
		<path class="st0" d="M73.5,66.2h-19c-15.6,0-28.8,14.1-33.5,29.6c-1.3,4.3-0.5,9.1,2.4,12.6c0.3,0.3,0.6,0.7,0.9,1
			c7.9,8.7,21.5,11.4,30.8,12.2c0.3,0,0.5,0,0.8,0c3.5,0,6.7-2.1,8.1-5.1c1.5,3,4.6,5.1,8.1,5.1c0.3,0,0.5,0,0.8,0
			c9.3-0.8,23-3.5,30.8-12.2c0.3-0.3,0.6-0.7,0.9-1c2.9-3.5,3.7-8.3,2.4-12.6C102.3,80.3,89.1,66.2,73.5,66.2z M42.3,101l-5.4-2.5
			l5.4-8.8V101z M85.7,101V89.7l5.4,8.8L85.7,101z"/>
	</g>
	<g>
		<path class="st1" d="M44.8,7.7c4,2.3,8.6,3.6,13.2,3.6H77c7.6,0,8.8,7.5,8.8,12.3v0H42.3l0,0c-2.5-4.1-2.8-11-0.9-15.4l0.9-2
			L44.8,7.7z"/>
	</g>
	<g>
		<path class="st2" d="M64,117.6c-0.4,0-0.8-0.2-0.9-0.6c-0.7-1.4-1-2.8-1-4.4c0-1.2,0.2-2.4,0.7-3.6c0.1-0.2,0.2-0.5,0.3-0.7
			c0.2-0.5,0.8-0.8,1.4-0.5c0.5,0.2,0.8,0.8,0.5,1.4l0,0c-0.1,0.2-0.2,0.4-0.3,0.6c-0.4,0.9-0.5,1.9-0.5,2.9c0,1.2,0.3,2.4,0.8,3.5
			c0.2,0.5,0,1.1-0.5,1.4C64.3,117.6,64.2,117.6,64,117.6z M42.3,102c-0.1,0-0.3,0-0.4-0.1l-5.4-2.5c-0.3-0.1-0.5-0.4-0.6-0.6
			c-0.1-0.3,0-0.6,0.1-0.8l5.4-8.8c0.2-0.4,0.7-0.6,1.2-0.4c0.4,0.1,0.7,0.5,0.7,1V101c0,0.4-0.2,0.7-0.5,0.9
			C42.6,102,42.5,102,42.3,102z M38.3,98.1l2.9,1.3v-6L38.3,98.1z"/>
	</g>
	<g>
		<path class="st2" d="M64,117.6c-0.4,0-0.8-0.2-0.9-0.6c-0.7-1.4-1-2.8-1-4.4c0-1.2,0.2-2.4,0.7-3.6c0.2-0.5,0.8-0.8,1.3-0.6
			c0.5,0.2,0.8,0.8,0.6,1.3c-0.3,0.9-0.5,1.9-0.5,2.8c0,1.2,0.3,2.4,0.8,3.5c0.2,0.5,0,1.1-0.5,1.4C64.3,117.6,64.2,117.6,64,117.6z
			"/>
	</g>
	<g>
		<path class="st2" d="M72.1,122.8c-3.2,0-6.2-1.5-8.1-4.1c-2.1,2.7-5.5,4.3-9,4c-10-0.8-23.6-3.7-31.6-12.5
			c-0.3-0.3-0.6-0.7-0.9-1.1c-3.1-3.8-4-8.9-2.6-13.7c4.6-15.1,17.9-30.5,34.6-30.5h19c16.6,0,30,15.3,34.6,30.4c0,0,0,0,0,0
			c1.4,4.8,0.5,9.9-2.6,13.7c-0.3,0.4-0.6,0.7-0.9,1.1c-8,8.8-21.6,11.7-31.6,12.5C72.7,122.8,72.4,122.8,72.1,122.8z M64,115.4
			c0.4,0,0.8,0.3,1,0.6c1.4,2.9,4.6,4.7,7.8,4.4c9.6-0.8,22.6-3.5,30.1-11.8c0.3-0.3,0.6-0.6,0.8-1c2.6-3.2,3.4-7.5,2.2-11.6l0,0
			C101.6,81.9,89,67.4,73.5,67.4h-19c-15.5,0-28,14.5-32.4,28.8c-1.2,4.1-0.4,8.4,2.2,11.6c0.3,0.3,0.5,0.6,0.8,0.9
			c7.5,8.3,20.5,11,30.1,11.8c0.2,0,0.5,0,0.7,0c3,0,5.8-1.7,7.1-4.4C63.2,115.7,63.6,115.4,64,115.4z"/>
	</g>
	<g>
		<path class="st2" d="M42.3,102.2c-0.2,0-0.3,0-0.5-0.1l-5.4-2.5c-0.3-0.1-0.5-0.4-0.6-0.7c-0.1-0.3-0.1-0.7,0.1-0.9l5.4-8.8
			c0.3-0.4,0.8-0.6,1.3-0.5c0.5,0.1,0.8,0.6,0.8,1.1V101c0,0.4-0.2,0.8-0.5,1C42.7,102.1,42.5,102.2,42.3,102.2z M38.5,98l2.6,1.2
			v-5.5L38.5,98z"/>
	</g>
	<g>
		<path class="st2" d="M64,109.9c-0.4,0-0.8-0.3-1-0.6c-1.2-2.4-3.4-4.1-6.1-4.4c0,0-0.1,0-0.1,0l-0.3-0.1c-0.5-0.1-0.9-0.6-0.9-1.1
			V91.3c0-0.6,0.5-1.1,1.1-1.1h14.6c0.6,0,1.1,0.5,1.1,1.1v12.3c0,0.5-0.4,1-0.9,1.1l-0.3,0.1c0,0-0.1,0-0.1,0
			c-2.6,0.3-4.9,2-6.1,4.4C64.8,109.7,64.4,109.9,64,109.9z M57.8,102.7c2.5,0.5,4.7,1.9,6.2,3.9c1.5-2,3.7-3.4,6.2-3.9V92.5H57.8
			V102.7z M71.3,103.7L71.3,103.7L71.3,103.7z"/>
	</g>
	<g>
		<path class="st2" d="M85.7,102.2c-0.2,0-0.4-0.1-0.6-0.2c-0.3-0.2-0.5-0.6-0.5-1V89.7c0-0.5,0.3-1,0.8-1.1c0.5-0.1,1,0.1,1.3,0.5
			l5.4,8.8c0.2,0.3,0.2,0.6,0.1,0.9c-0.1,0.3-0.3,0.6-0.6,0.7l-5.4,2.5C86.1,102.1,85.9,102.2,85.7,102.2z M86.9,93.8v5.5l2.6-1.2
			L86.9,93.8z"/>
	</g>
	<g>
		<path class="st1" d="M71.3,91.3v12.3l-0.3,0.1c-3.1,0.4-5.7,2.4-7,5c-1.3-2.7-3.9-4.6-7-5l-0.3-0.1V91.3H71.3z"/>
	</g>
	<g>
		<path class="st2" d="M64,109.8L64,109.8c-0.4,0-0.8-0.2-0.9-0.6c-1.2-2.5-3.5-4.1-6.2-4.5l-0.4-0.1c-0.5-0.1-0.8-0.5-0.8-1V91.3
			c0-0.6,0.5-1,1-1h14.6c0.6,0,1,0.5,1,1v12.3c0,0.5-0.4,0.9-0.8,1l-0.3,0.1c-2.8,0.3-5.1,2-6.2,4.5C64.8,109.6,64.4,109.8,64,109.8
			z M57.7,102.8c2.5,0.4,4.8,1.9,6.3,4c1.5-2.1,3.7-3.5,6.3-4V92.4H57.7V102.8z"/>
	</g>
	<g>
		<path class="st3" d="M85.7,23.6v20.7c0,12-9.7,21.7-21.7,21.7s-21.7-9.8-21.7-21.7V23.6H85.7z"/>
	</g>
	<g>
		<path class="st2" d="M64,67.1c-12.6,0-22.8-10.2-22.8-22.8V23.6c0-0.6,0.5-1,1-1s1,0.5,1,1v20.7c0,11.4,9.3,20.7,20.7,20.7
			s20.7-9.3,20.7-20.7V23.6c0-0.6,0.5-1,1-1s1,0.5,1,1v20.7C86.8,56.9,76.6,67.1,64,67.1z"/>
	</g>
	<g>
		<path class="st4" d="M73,53.1c0.9-0.5,1.9,0.6,1.4,1.5c-2.1,3.5-6,5.9-10.4,5.9c-4.4,0-8.3-2.4-10.4-5.9c-0.5-0.9,0.4-2,1.4-1.5
			c2.7,1.4,5.8,2.1,9,2.1C67.2,55.2,70.3,54.4,73,53.1z"/>
	</g>
	<g>
		<path class="st2" d="M66.1,48.6h-6c-0.4,0-0.7-0.2-0.9-0.5c-0.2-0.3-0.2-0.7,0-1.1l3.7-5.6v-7.3c0-0.6,0.5-1,1-1c0.6,0,1,0.5,1,1
			v7.6c0,0.2-0.1,0.4-0.2,0.6L62,46.6h4c0.6,0,1,0.5,1,1S66.7,48.6,66.1,48.6z"/>
	</g>
	<g>
		<path class="st2" d="M75.8,30.9h-6.6c-0.6,0-1-0.5-1-1c0-0.6,0.5-1,1-1h6.6c0.6,0,1,0.5,1,1C76.8,30.4,76.4,30.9,75.8,30.9z"/>
	</g>
	<g>
		<path class="st2" d="M58.8,30.9h-6.6c-0.6,0-1-0.5-1-1c0-0.6,0.5-1,1-1h6.6c0.6,0,1,0.5,1,1C59.8,30.4,59.3,30.9,58.8,30.9z"/>
	</g>
	<g>
		<path class="st2" d="M85.7,24.6H42.3c-0.4,0-0.7-0.2-0.9-0.5c-2.6-4.4-3-11.5-0.9-16.3l0.9-2c0.1-0.3,0.3-0.5,0.6-0.6
			c0.3-0.1,0.6-0.1,0.8,0.1l2.6,1.5l0,0c3.9,2.2,8.3,3.4,12.7,3.4H77c6.3,0,9.8,4.8,9.8,13.4C86.8,24.2,86.3,24.6,85.7,24.6z
			 M42.9,22.6h41.8c-0.2-4.9-1.7-10.3-7.7-10.3H58c-4.8,0-9.6-1.3-13.8-3.7l-1.6-0.9l-0.4,0.9C40.6,12.6,40.8,18.7,42.9,22.6z"/>
	</g>
	<g>
		<path class="st2" d="M85.7,102c-0.2,0-0.4-0.1-0.6-0.2c-0.3-0.2-0.5-0.5-0.5-0.9V89.7c0-0.5,0.3-0.9,0.7-1
			c0.4-0.1,0.9,0.1,1.2,0.4L92,98c0.2,0.3,0.2,0.6,0.1,0.8c-0.1,0.3-0.3,0.5-0.6,0.6l-5.4,2.5C86,102,85.9,102,85.7,102z M86.8,93.4
			v6l2.9-1.3L86.8,93.4z"/>
	</g>
	<g>
		<path class="st2" d="M71.3,104.7c-0.5,0-0.9-0.3-1-0.8c-0.1-0.6,0.3-1.1,0.8-1.2l14.4-2.7c0.6-0.1,1.1,0.3,1.2,0.8
			c0.1,0.6-0.3,1.1-0.8,1.2l-14.4,2.7C71.4,104.7,71.4,104.7,71.3,104.7z"/>
	</g>
	<g>
		<path class="st2" d="M42.3,102c-0.1,0-0.3,0-0.4-0.1l-5.4-2.5c-0.3-0.1-0.5-0.4-0.6-0.6c-0.1-0.3,0-0.6,0.1-0.8l5.4-8.8
			c0.2-0.4,0.7-0.6,1.2-0.4c0.4,0.1,0.7,0.5,0.7,1V101c0,0.4-0.2,0.7-0.5,0.9C42.6,102,42.5,102,42.3,102z M38.3,98.1l2.9,1.3v-6
			L38.3,98.1z"/>
	</g>
	<g>
		<path class="st2" d="M64,67.2c-0.6,0-1-0.5-1-1v-0.1c0-0.6,0.5-1,1-1c0.6,0,1,0.5,1,1v0.1C65,66.8,64.6,67.2,64,67.2z"/>
	</g>
	<g>
		<path class="st2" d="M56.7,104.7c-0.1,0-0.1,0-0.2,0L42.1,102c-0.6-0.1-0.9-0.6-0.8-1.2c0.1-0.6,0.6-0.9,1.2-0.8l14.4,2.7
			c0.6,0.1,0.9,0.6,0.8,1.2C57.6,104.4,57.2,104.7,56.7,104.7z"/>
	</g>
	<g>
		<circle class="st4" cx="60.3" cy="95.2" r="0.9"/>
	</g>
	<g>
		<circle class="st4" cx="62.3" cy="95.2" r="0.4"/>
	</g>
</g>
</svg>
