<?xml version="1.0" encoding="utf-8"?>
<!-- Generator: Adobe Illustrator 23.0.0, SVG Export Plug-In . SVG Version: 6.00 Build 0)  -->
<svg version="1.1" id="Layer_1" xmlns="http://www.w3.org/2000/svg" xmlns:xlink="http://www.w3.org/1999/xlink" x="0px" y="0px"
	 viewBox="0 0 128 128" style="enable-background:new 0 0 128 128;" xml:space="preserve">
<style type="text/css">
	.st0{fill:#67585C;}
	.st1{fill:#2F1D22;}
	.st2{fill:#C7C1AA;}
	.st3{fill:#B9B194;}
	.st4{fill:#75D5C7;}
	.st5{fill:#534447;}
</style>
<g>
	<g>
		<path class="st0" d="M73.1,70.2v34.2H55V70.2c0-1.3,1-2.3,2.3-2.3h13.6C72,67.9,73.1,68.9,73.1,70.2z"/>
	</g>
	<g>
		<g>
			<g>
				<path class="st0" d="M121.4,60l-4.5,5.4c-0.8,1-2.3,1.1-3.4,0.3l-7.8-6.5L64,24.6L22.2,59.2l-7.8,6.5c-1,0.8-2.5,0.7-3.4-0.3
					L6.6,60c-0.8-1-0.7-2.5,0.3-3.4l52.1-43c2.9-2.4,7.1-2.4,10,0l18.1,15l6.2,5.1l12.3,10.2l15.5,12.8
					C122.1,57.5,122.3,59,121.4,60z"/>
			</g>
			<g>
				<path class="st1" d="M115.1,67.3c-0.8,0-1.5-0.3-2.2-0.8L64,25.9L15.1,66.5c-1.5,1.2-3.6,1-4.8-0.4l-4.5-5.4
					C5.2,60,4.9,59.1,5,58.2c0.1-0.9,0.5-1.8,1.2-2.3l52.1-43c3.3-2.7,8-2.7,11.3,0l52.1,43c0.7,0.6,1.2,1.4,1.2,2.3
					c0.1,0.9-0.2,1.8-0.8,2.5l-4.5,5.4C117.1,66.8,116.1,67.3,115.1,67.3z M64,23.5c0.2,0,0.5,0.1,0.7,0.2l49.6,41.1
					c0.6,0.5,1.4,0.4,1.9-0.2l4.5-5.3c0,0,0,0,0,0c0.2-0.3,0.3-0.6,0.3-1c0-0.4-0.2-0.7-0.5-0.9l-52.1-43c-2.5-2.1-6.2-2.1-8.7,0
					l-52.1,43c-0.3,0.2-0.5,0.6-0.5,0.9c0,0.3,0.1,0.7,0.3,1l4.5,5.4c0.5,0.6,1.3,0.6,1.9,0.2l49.6-41.1
					C63.5,23.6,63.8,23.5,64,23.5z"/>
			</g>
			<g>
				<path class="st2" d="M105.6,13.5v30.3L93.3,33.7l-6.2-5.1V13.5c0-0.9,0.8-1.7,1.7-1.7h15.1C104.9,11.8,105.6,12.6,105.6,13.5z"
					/>
			</g>
			<g>
				<path class="st1" d="M105.6,44.9c-0.2,0-0.5-0.1-0.7-0.2L86.5,29.4c-0.2-0.2-0.4-0.5-0.4-0.8V13.5c0-1.5,1.2-2.7,2.7-2.7h15.1
					c1.5,0,2.7,1.2,2.7,2.7v30.3c0,0.4-0.2,0.8-0.6,0.9C105.9,44.9,105.8,44.9,105.6,44.9z M88.2,28.1l16.4,13.5V13.5
					c0-0.4-0.3-0.6-0.6-0.6H88.8c-0.3,0-0.6,0.3-0.6,0.6V28.1z"/>
			</g>
			<g>
				<path class="st2" d="M105.8,59.2v39.3c0,3.3-2.7,5.9-5.9,5.9H73.1V70.2c0-1.3-1-2.3-2.3-2.3H57.2c-1.2,0-2.3,1-2.3,2.3v34.2
					H28.1c-3.3,0-5.9-2.7-5.9-5.9V59.2L64,24.6L105.8,59.2z"/>
			</g>
			<g>
				<g>
					<polygon class="st3" points="64,24.6 22.2,59.2 22.2,66.4 64,31.7 105.8,66.4 105.8,59.2 					"/>
				</g>
				<g>
					<path class="st2" d="M105.8,66.4v32.1c0,3.3-2.7,5.9-5.9,5.9H73.1V70.2c0-1.3-1-2.3-2.3-2.3H57.2c-1.2,0-2.3,1-2.3,2.3v34.2
						H28.1c-3.3,0-5.9-2.7-5.9-5.9V66.4L64,31.7L105.8,66.4z"/>
				</g>
			</g>
			<g>
				<path class="st1" d="M99.9,105.5H73.1c-0.6,0-1-0.5-1-1V70.2c0-0.7-0.6-1.2-1.2-1.2H57.2c-0.7,0-1.2,0.6-1.2,1.2v34.2
					c0,0.6-0.5,1-1,1H28.1c-3.9,0-7-3.1-7-7V59.2c0-0.3,0.1-0.6,0.4-0.8l41.8-34.6c0.4-0.3,1-0.3,1.3,0l41.8,34.6
					c0.2,0.2,0.4,0.5,0.4,0.8v39.3C106.8,102.4,103.7,105.5,99.9,105.5z M74.1,103.4h25.8c2.7,0,4.9-2.2,4.9-4.9V59.7L64,25.9
					L23.3,59.7v38.8c0,2.7,2.2,4.9,4.9,4.9h25.8V70.2c0-1.8,1.5-3.3,3.3-3.3h13.6c1.8,0,3.3,1.5,3.3,3.3V103.4z"/>
			</g>
			<g>
				<path class="st1" d="M99.9,105.5H73.1c-0.6,0-1-0.5-1-1V70.2c0-0.7-0.6-1.2-1.2-1.2H57.2c-0.7,0-1.2,0.6-1.2,1.2v34.2
					c0,0.6-0.5,1-1,1H28.1c-3.9,0-7-3.1-7-7V59.2c0-0.3,0.1-0.6,0.4-0.8l41.8-34.6c0.4-0.3,1-0.3,1.3,0l41.8,34.6
					c0.2,0.2,0.4,0.5,0.4,0.8v39.3C106.8,102.4,103.7,105.5,99.9,105.5z M74.1,103.4h25.8c2.7,0,4.9-2.2,4.9-4.9V59.7L64,25.9
					L23.3,59.7v38.8c0,2.7,2.2,4.9,4.9,4.9h25.8V70.2c0-1.8,1.5-3.3,3.3-3.3h13.6c1.8,0,3.3,1.5,3.3,3.3V103.4z"/>
			</g>
			<g>
				<path class="st1" d="M22.2,60.2c-0.6,0-1-0.5-1-1v0c0-0.6,0.5-1,1-1s1,0.5,1,1C23.3,59.8,22.8,60.2,22.2,60.2z"/>
			</g>
			<g>
				<path class="st1" d="M105.8,60.2c-0.6,0-1-0.5-1-1v0c0-0.6,0.5-1,1-1s1,0.5,1,1C106.8,59.8,106.4,60.2,105.8,60.2z"/>
			</g>
		</g>
	</g>
	<g>
		<path class="st1" d="M73.1,105.5H55c-0.6,0-1-0.5-1-1V70.2c0-1.8,1.5-3.3,3.3-3.3h13.6c1.8,0,3.3,1.5,3.3,3.3v34.2
			C74.1,105,73.6,105.5,73.1,105.5z M56,103.4h16V70.2c0-0.7-0.6-1.2-1.2-1.2H57.2c-0.7,0-1.2,0.6-1.2,1.2V103.4z"/>
	</g>
	<g>
		<g>
			<path class="st4" d="M89.8,95.5h-5.7V83c0-1.6,1.3-2.8,2.8-2.8l0,0c1.6,0,2.8,1.3,2.8,2.8V95.5z"/>
		</g>
		<g>
			<path class="st5" d="M111,95.5h5.7V83c0-1.6-1.3-2.8-2.8-2.8h0c-1.6,0-2.8,1.3-2.8,2.8V95.5z"/>
		</g>
		<g>
			<path class="st5" d="M84.4,95.5l0.8,6.9v12c0,1,0.9,1.7,2.1,1.7h0c1.1,0,2.1-0.8,2.1-1.7V95.5"/>
		</g>
		<g>
			<path class="st3" d="M116.4,95.5l-0.8,6.9v12c0,1-0.9,1.7-2.1,1.7h0c-1.1,0-2.1-0.8-2.1-1.7V95.5"/>
		</g>
		<g>
			<circle class="st2" cx="86.9" cy="75.2" r="2.7"/>
		</g>
		<g>
			<circle class="st2" cx="113.9" cy="75.2" r="2.7"/>
		</g>
		<g>
			<path class="st1" d="M89.8,96.5h-5.7c-0.6,0-1-0.5-1-1V83c0-2.1,1.7-3.9,3.9-3.9c2.1,0,3.9,1.7,3.9,3.9v12.5
				C90.8,96.1,90.3,96.5,89.8,96.5z M85.1,94.4h3.6V83c0-1-0.8-1.8-1.8-1.8S85.1,82,85.1,83V94.4z"/>
		</g>
		<g>
			<path class="st1" d="M87.3,117.2c-1.7,0-3.1-1.2-3.1-2.8v-12l-0.8-6.9c-0.1-0.6,0.3-1.1,0.9-1.2c0.6-0.1,1.1,0.3,1.2,0.9l0.8,6.9
				c0,0,0,0.1,0,0.1v12c0,0.3,0.4,0.7,1,0.7c0.6,0,1-0.4,1-0.7V95.5c0-0.6,0.5-1,1-1c0.6,0,1,0.5,1,1v18.9
				C90.5,116,89.1,117.2,87.3,117.2z"/>
		</g>
		<g>
			<path class="st1" d="M86.9,78.9c-2.1,0-3.8-1.7-3.8-3.8s1.7-3.8,3.8-3.8c2.1,0,3.8,1.7,3.8,3.8S89,78.9,86.9,78.9z M86.9,73.5
				c-0.9,0-1.7,0.7-1.7,1.7s0.7,1.7,1.7,1.7s1.7-0.7,1.7-1.7S87.8,73.5,86.9,73.5z"/>
		</g>
		<g>
			<path class="st1" d="M116.7,96.5H111c-0.6,0-1-0.5-1-1V83c0-2.1,1.7-3.9,3.9-3.9c2.1,0,3.9,1.7,3.9,3.9v12.5
				C117.8,96.1,117.3,96.5,116.7,96.5z M112.1,94.4h3.6V83c0-1-0.8-1.8-1.8-1.8c-1,0-1.8,0.8-1.8,1.8V94.4z"/>
		</g>
		<g>
			<path class="st1" d="M113.5,117.2c-1.7,0-3.1-1.2-3.1-2.8V95.5c0-0.6,0.5-1,1-1c0.6,0,1,0.5,1,1v18.9c0,0.3,0.4,0.7,1,0.7
				c0.6,0,1-0.4,1-0.7v-12c0,0,0-0.1,0-0.1l0.8-6.9c0.1-0.6,0.6-1,1.2-0.9c0.6,0.1,1,0.6,0.9,1.2l-0.8,6.9v12
				C116.6,116,115.2,117.2,113.5,117.2z"/>
		</g>
		<g>
			<path class="st1" d="M113.9,78.9c-2.1,0-3.8-1.7-3.8-3.8s1.7-3.8,3.8-3.8c2.1,0,3.8,1.7,3.8,3.8S116,78.9,113.9,78.9z
				 M113.9,73.5c-0.9,0-1.7,0.7-1.7,1.7s0.7,1.7,1.7,1.7c0.9,0,1.7-0.7,1.7-1.7S114.8,73.5,113.9,73.5z"/>
		</g>
		<g>
			<g>
				<path class="st4" d="M99.5,94.4c-0.3,0-0.6-0.1-0.9-0.3l-12-8.5c-0.7-0.5-0.9-1.5-0.4-2.2c0.5-0.7,1.5-0.9,2.2-0.4l12,8.5
					c0.7,0.5,0.9,1.5,0.4,2.2C100.5,94.2,100,94.4,99.5,94.4z"/>
			</g>
		</g>
		<g>
			<g>
				<path class="st1" d="M99.5,95.5c-0.5,0-1.1-0.2-1.5-0.5l-12-8.5c-0.6-0.4-0.9-1-1.1-1.7c-0.1-0.7,0-1.4,0.4-1.9
					c0.4-0.6,1-0.9,1.7-1.1c0.7-0.1,1.4,0,1.9,0.4l12,8.5c1.2,0.8,1.4,2.5,0.6,3.6C101.1,95.1,100.3,95.5,99.5,95.5z M87.5,83.8
					C87.5,83.8,87.4,83.8,87.5,83.8c-0.2,0-0.3,0.1-0.4,0.2C87,84.2,87,84.4,87,84.4c0,0.1,0.1,0.2,0.2,0.3l12,8.5
					c0.1,0.1,0.2,0.1,0.3,0.1c0.2,0,0.3-0.1,0.4-0.2c0.2-0.2,0.1-0.6-0.1-0.7l-12-8.5C87.7,83.8,87.6,83.8,87.5,83.8z"/>
			</g>
		</g>
		<g>
			<g>
				<path class="st5" d="M101.3,94.4c0.3,0,0.6-0.1,0.9-0.3l12-8.5c0.7-0.5,0.9-1.5,0.4-2.2c-0.5-0.7-1.5-0.9-2.2-0.4l-12,8.5
					c-0.7,0.5-0.9,1.5-0.4,2.2C100.3,94.2,100.8,94.4,101.3,94.4z"/>
			</g>
		</g>
		<g>
			<g>
				<path class="st1" d="M101.3,95.5c-0.8,0-1.6-0.4-2.1-1.1c-0.4-0.6-0.6-1.3-0.4-1.9c0.1-0.7,0.5-1.3,1.1-1.7l12-8.5
					c1.2-0.8,2.8-0.6,3.6,0.6c0.4,0.6,0.6,1.3,0.4,1.9c-0.1,0.7-0.5,1.3-1.1,1.7l-12,8.5C102.4,95.3,101.9,95.5,101.3,95.5z
					 M113.3,83.8c-0.1,0-0.2,0-0.3,0.1l-12,8.5c-0.2,0.1-0.2,0.3-0.2,0.3c0,0.1,0,0.2,0.1,0.4c0.1,0.1,0.3,0.2,0.4,0.2
					c0.1,0,0.2,0,0.3-0.1l12-8.5c0.2-0.1,0.2-0.3,0.2-0.3c0-0.1,0-0.2-0.1-0.4C113.6,83.9,113.5,83.8,113.3,83.8z"/>
			</g>
		</g>
	</g>
</g>
</svg>
