<?xml version="1.0" encoding="utf-8"?>
<!-- Generator: Adobe Illustrator 23.0.0, SVG Export Plug-In . SVG Version: 6.00 Build 0)  -->
<svg version="1.1" id="Layer_1" xmlns="http://www.w3.org/2000/svg" xmlns:xlink="http://www.w3.org/1999/xlink" x="0px" y="0px"
	 viewBox="0 0 128 128" style="enable-background:new 0 0 128 128;" xml:space="preserve">
<style type="text/css">
	.st0{fill:#C7C1AA;}
	.st1{fill:#FFFFFF;}
	.st2{fill:#E2F7F3;}
	.st3{fill:#2F1D22;}
	.st4{fill:#B9B194;}
	.st5{fill:#534447;}
	.st6{fill:#AAE6DE;}
	.st7{fill:#75D5C7;}
</style>
<g>
	<g>
		<g>
			<rect x="44.9" y="107.9" class="st0" width="38.3" height="5.2"/>
		</g>
		<g>
			<rect x="44.9" y="107.9" class="st0" width="38.3" height="5.2"/>
		</g>
		<g>
			<path class="st0" d="M117.9,14.9H10.1c-2.3,0-4.1,2-4.1,4.5v68.2c0,1.9,1.6,3.5,3.5,3.5h109.1c1.9,0,3.5-1.6,3.5-3.5V19.4
				C122.1,16.9,120.2,14.9,117.9,14.9z"/>
		</g>
		<g>
			<rect x="9.6" y="19.4" class="st1" width="108.8" height="61.7"/>
		</g>
		<g>
			<path class="st2" d="M112.6,22.7H9.6v-3.2h108.8v61.7h-3.2V25.2C115.2,23.8,114,22.7,112.6,22.7z"/>
		</g>
		<g>
			<path class="st3" d="M118.5,92.2H9.5c-2.5,0-4.5-2-4.5-4.5V19.4c0-3,2.3-5.5,5.1-5.5h107.9c2.8,0,5.1,2.5,5.1,5.5v68.2
				C123,90.1,121,92.2,118.5,92.2z M10.1,15.9c-1.7,0-3.2,1.6-3.2,3.5v68.2c0,1.4,1.1,2.5,2.5,2.5h109.1c1.4,0,2.5-1.1,2.5-2.5V19.4
				c0-1.9-1.4-3.5-3.2-3.5H10.1z"/>
		</g>
		<g>
			<path class="st3" d="M118.4,82.1H9.6c-0.5,0-1-0.4-1-1V19.4c0-0.5,0.4-1,1-1h108.8c0.5,0,1,0.4,1,1v61.7
				C119.4,81.7,118.9,82.1,118.4,82.1z M10.6,80.1h106.8V20.4H10.6V80.1z"/>
		</g>
		<g>
			<rect x="55" y="91.2" class="st0" width="18" height="16.7"/>
		</g>
		<g>
			<rect x="55" y="91.2" class="st4" width="18" height="3.9"/>
		</g>
		<g>
			<path class="st3" d="M83.1,114.1H44.9c-0.5,0-1-0.4-1-1v-5.2c0-0.5,0.4-1,1-1h38.3c0.5,0,1,0.4,1,1v5.2
				C84.1,113.6,83.7,114.1,83.1,114.1z M45.8,112.1h36.3v-3.2H45.8V112.1z"/>
		</g>
		<g>
			<path class="st3" d="M73,108.9H55c-0.5,0-1-0.4-1-1V91.2c0-0.5,0.4-1,1-1h18c0.5,0,1,0.4,1,1v16.7C74,108.4,73.6,108.9,73,108.9z
				 M56,106.9H72V92.2H56V106.9z"/>
		</g>
		<g>
			<circle class="st5" cx="64" cy="86.2" r="2.3"/>
		</g>
		<g>
			<path class="st3" d="M64,89.4c-1.8,0-3.3-1.5-3.3-3.3s1.5-3.3,3.3-3.3c1.8,0,3.3,1.5,3.3,3.3S65.8,89.4,64,89.4z M64,84.9
				c-0.7,0-1.3,0.6-1.3,1.3s0.6,1.3,1.3,1.3c0.7,0,1.3-0.6,1.3-1.3S64.7,84.9,64,84.9z"/>
		</g>
	</g>
	<g>
		<g>
			<path class="st5" d="M74.6,21.8c0,0-7.8,7.4-11.5,16.3l-5.3-6l4.4,2.5C62.2,34.6,68.1,25.7,74.6,21.8z"/>
		</g>
		<g>
			<path class="st3" d="M63.1,44.1c-5.9,0-10.7-4.8-10.7-10.7c0-5.9,4.8-10.7,10.7-10.7c1.9,0,3.8,0.5,5.4,1.5
				c0.5,0.3,0.6,0.9,0.3,1.3c-0.3,0.5-0.9,0.6-1.3,0.3c-1.3-0.8-2.9-1.2-4.4-1.2c-4.8,0-8.7,3.9-8.7,8.7s3.9,8.7,8.7,8.7
				s8.7-3.9,8.7-8.7c0-1.8-0.6-3.6-1.6-5.1c-0.3-0.4-0.2-1.1,0.2-1.4c0.4-0.3,1.1-0.2,1.4,0.2c1.3,1.8,2,4,2,6.2
				C73.8,39.3,69,44.1,63.1,44.1z"/>
		</g>
	</g>
	<g>
		<path class="st3" d="M71.6,82.1H56.4c-0.5,0-1-0.4-1-1v-23c0-0.5,0.4-1,1-1h15.3c0.5,0,1,0.4,1,1v23
			C72.6,81.7,72.2,82.1,71.6,82.1z M57.3,80.1h13.3v-21H57.3V80.1z"/>
	</g>
	<g>
		
			<rect x="86.3" y="58.1" transform="matrix(-1 4.489907e-11 -4.489907e-11 -1 187.9192 139.2387)" class="st2" width="15.3" height="23"/>
	</g>
	<g>
		<rect x="56.4" y="58.1" class="st6" width="15.3" height="23"/>
	</g>
	<g>
		<rect x="56.4" y="47.1" class="st6" width="15.3" height="7.9"/>
	</g>
	<g>
		
			<rect x="86.3" y="47.1" transform="matrix(-1 4.501853e-11 -4.501853e-11 -1 187.9192 102.15)" class="st2" width="15.3" height="7.9"/>
	</g>
	<g>
		<path class="st3" d="M71.6,56H56.4c-0.5,0-1-0.4-1-1v-7.9c0-0.5,0.4-1,1-1h15.3c0.5,0,1,0.4,1,1V55C72.6,55.6,72.2,56,71.6,56z
			 M57.3,54h13.3v-5.9H57.3V54z"/>
	</g>
	<g>
		<path class="st3" d="M71.6,82.1H56.4c-0.5,0-1-0.4-1-1v-23c0-0.5,0.4-1,1-1h15.3c0.5,0,1,0.4,1,1v23
			C72.6,81.7,72.2,82.1,71.6,82.1z M57.3,80.1h13.3v-21H57.3V80.1z"/>
	</g>
	<g>
		<path class="st3" d="M71.6,56H56.4c-0.5,0-1-0.4-1-1v-7.9c0-0.5,0.4-1,1-1h15.3c0.5,0,1,0.4,1,1V55C72.6,55.6,72.2,56,71.6,56z
			 M57.3,54h13.3v-5.9H57.3V54z"/>
	</g>
	<g>
		<rect x="26.4" y="58.1" class="st7" width="15.3" height="23"/>
	</g>
	<g>
		<rect x="26.4" y="47.1" class="st7" width="15.3" height="7.9"/>
	</g>
	<g>
		<path class="st3" d="M101.6,82.1H86.3c-0.5,0-1-0.4-1-1v-23c0-0.5,0.4-1,1-1h15.3c0.5,0,1,0.4,1,1v23
			C102.6,81.7,102.1,82.1,101.6,82.1z M87.3,80.1h13.3v-21H87.3V80.1z"/>
	</g>
	<g>
		<path class="st3" d="M101.6,56H86.3c-0.5,0-1-0.4-1-1v-7.9c0-0.5,0.4-1,1-1h15.3c0.5,0,1,0.4,1,1V55C102.6,55.6,102.1,56,101.6,56
			z M87.3,54h13.3v-5.9H87.3V54z"/>
	</g>
	<g>
		<path class="st3" d="M41.7,82.1H26.4c-0.5,0-1-0.4-1-1v-23c0-0.5,0.4-1,1-1h15.3c0.5,0,1,0.4,1,1v23
			C42.7,81.7,42.2,82.1,41.7,82.1z M27.4,80.1h13.3v-21H27.4V80.1z"/>
	</g>
	<g>
		<path class="st3" d="M41.7,56H26.4c-0.5,0-1-0.4-1-1v-7.9c0-0.5,0.4-1,1-1h15.3c0.5,0,1,0.4,1,1V55C42.7,55.6,42.2,56,41.7,56z
			 M27.4,54h13.3v-5.9H27.4V54z"/>
	</g>
</g>
</svg>
