<?xml version="1.0" encoding="utf-8"?>
<!-- Generator: Adobe Illustrator 16.0.0, SVG Export Plug-In . SVG Version: 6.00 Build 0)  -->
<!DOCTYPE svg PUBLIC "-//W3C//DTD SVG 1.1//EN" "http://www.w3.org/Graphics/SVG/1.1/DTD/svg11.dtd">
<svg version="1.1" id="Camada_1" xmlns="http://www.w3.org/2000/svg" xmlns:xlink="http://www.w3.org/1999/xlink" x="0px" y="0px"
	 width="841.89px" height="595.28px" viewBox="0 0 841.89 595.28" enable-background="new 0 0 841.89 595.28" xml:space="preserve">
<g>
	<polygon fill="#00AB97" points="166.296,489.681 166.296,433.322 175.812,433.322 175.812,457.754 203.782,457.754 
		203.782,433.322 213.292,433.322 213.292,489.681 203.782,489.681 203.782,466.615 175.812,466.615 175.812,489.681 	"/>
	<path fill="#00AB97" d="M258.682,483.914c-4.294,4.28-9.673,6.419-16.119,6.419c-6.449,0-11.825-2.139-16.123-6.419
		c-4.305-4.265-6.449-9.498-6.449-15.676c0-6.19,2.144-11.41,6.449-15.675c4.298-4.294,9.674-6.418,16.123-6.418
		c6.445,0,11.825,2.124,16.119,6.418c4.306,4.265,6.442,9.484,6.442,15.675C265.124,474.416,262.988,479.649,258.682,483.914
		 M232.844,478.346c2.554,2.61,5.785,3.914,9.719,3.914c3.923,0,7.155-1.304,9.712-3.914c2.553-2.595,3.827-5.979,3.827-10.107
		c0-4.141-1.274-7.511-3.827-10.12c-2.557-2.595-5.789-3.899-9.712-3.899c-3.934,0-7.166,1.305-9.719,3.899
		c-2.549,2.609-3.824,5.979-3.824,10.12C229.02,472.366,230.294,475.751,232.844,478.346"/>
	<path fill="#00AB97" d="M279.565,466.465v23.216h-9.028v-42.883h9.028v7.815c1.29-2.641,3.24-4.704,5.842-6.207
		c2.603-1.518,5.414-2.261,8.421-2.261c6.776,0,11.373,2.792,13.79,8.376c4.242-5.584,9.541-8.376,15.88-8.376
		c4.84,0,8.741,1.487,11.729,4.431c2.986,2.959,4.477,7.238,4.477,12.822v26.282h-9.036V466.13c0-7.891-3.271-11.836-9.833-11.836
		c-3.062,0-5.736,0.986-8.02,2.943c-2.284,1.958-3.482,4.826-3.581,8.573v23.87h-9.036V466.13c0-4.066-0.721-7.071-2.174-8.983
		c-1.454-1.896-3.729-2.853-6.862-2.853c-3.107,0-5.827,1.031-8.142,3.096C280.723,459.469,279.565,462.488,279.565,466.465"/>
	<path fill="#00AB97" d="M387.353,472.184h-33.619c0.212,3.111,1.642,5.632,4.275,7.543c2.632,1.896,5.633,2.853,9.036,2.853
		c5.36,0,9.454-1.685,12.235-5.067l5.166,5.645c-4.613,4.779-10.629,7.177-18.045,7.177c-6.033,0-11.157-2.004-15.376-6.01
		c-4.218-4.02-6.324-9.377-6.324-16.13c0-6.737,2.136-12.094,6.453-16.069c4.305-3.991,9.362-5.979,15.189-5.979
		c5.835,0,10.801,1.761,14.886,5.28c4.071,3.536,6.124,8.377,6.124,14.553V472.184z M353.734,465.082h24.589
		c0-3.58-1.126-6.357-3.388-8.3c-2.261-1.927-5.042-2.897-8.341-2.897c-3.313,0-6.271,1.001-8.904,3.034
		C355.051,458.923,353.734,461.654,353.734,465.082"/>
	<path fill="#00AB97" d="M428.027,440.743c-2.765,0-5.049,0.562-6.821,1.7c-1.771,1.122-2.663,2.822-2.663,5.099
		c0,2.306,0.891,4.036,2.663,5.25c1.772,1.214,5.549,2.519,11.321,3.915c5.788,1.396,10.136,3.368,13.064,5.887
		c2.929,2.535,4.4,6.238,4.4,11.168c0,4.917-1.852,8.909-5.576,11.974c-3.695,3.05-8.566,4.598-14.582,4.598
		c-8.813,0-16.636-3.051-23.457-9.119l5.967-7.178c5.701,4.946,11.604,7.421,17.735,7.421c3.061,0,5.496-0.654,7.295-1.974
		c1.798-1.319,2.709-3.064,2.709-5.235c0-2.186-0.865-3.869-2.55-5.083s-4.609-2.322-8.736-3.308
		c-4.146-1.002-7.295-1.913-9.439-2.747c-2.158-0.834-4.063-1.912-5.728-3.263c-3.331-2.519-4.992-6.388-4.992-11.608
		c0-5.22,1.885-9.226,5.679-12.063c3.79-2.807,8.476-4.219,14.07-4.219c3.597,0,7.174,0.592,10.725,1.775
		c3.535,1.184,6.608,2.854,9.188,4.992l-5.084,7.178c-1.669-1.502-3.922-2.731-6.775-3.702
		C433.604,441.229,430.778,440.743,428.027,440.743"/>
	<path fill="#00AB97" d="M464.666,466.465v23.216h-9.044v-59.741h9.044v24.674c1.29-2.641,3.232-4.704,5.842-6.207
		c2.61-1.518,5.41-2.261,8.422-2.261c4.841,0,8.756,1.487,11.729,4.431c2.982,2.959,4.477,7.238,4.477,12.822v26.282h-9.028V466.13
		c0-7.891-3.277-11.836-9.833-11.836c-3.126,0-5.835,1.031-8.149,3.096C465.812,459.469,464.666,462.488,464.666,466.465"/>
	<path fill="#00AB97" d="M537.616,489.681h-8.209v-5.735c-3.559,4.263-8.308,6.388-14.271,6.388c-4.477,0-8.164-1.275-11.093-3.809
		c-2.929-2.505-4.4-5.888-4.4-10.105c0-4.22,1.563-7.376,4.688-9.469c3.111-2.11,7.33-3.143,12.641-3.143h11.699v-1.623
		c0-5.69-3.171-8.543-9.514-8.543c-3.976,0-8.119,1.441-12.413,4.354l-4.036-5.645c5.22-4.128,11.138-6.206,17.73-6.206
		c5.062,0,9.189,1.274,12.391,3.839c3.194,2.534,4.787,6.556,4.787,12.049V489.681z M528.588,473.717v-3.626h-10.159
		c-6.502,0-9.758,2.048-9.758,6.131c0,2.079,0.805,3.687,2.421,4.779c1.616,1.124,3.854,1.654,6.73,1.654
		c2.883,0,5.401-0.789,7.557-2.398C527.518,478.634,528.588,476.464,528.588,473.717"/>
	<path fill="#00AB97" d="M567.852,455.25c-4.461,0-7.815,1.457-10.084,4.37c-2.253,2.899-3.376,6.798-3.376,11.685v18.376h-9.043
		v-42.883h9.043v8.619c1.449-2.686,3.429-4.887,5.926-6.616c2.496-1.715,5.145-2.61,7.929-2.655l0.091,9.104H567.852z"/>
	<path fill="#00AB97" d="M573.094,438.239c-1.131-1.123-1.691-2.458-1.691-4.021c0-1.563,0.561-2.899,1.691-4.037
		c1.131-1.122,2.467-1.699,4.029-1.699s2.913,0.577,4.036,1.699c1.116,1.138,1.691,2.474,1.691,4.037
		c0,1.563-0.575,2.897-1.691,4.021c-1.123,1.139-2.474,1.699-4.036,1.699S574.225,439.378,573.094,438.239 M581.562,489.681h-9.036
		v-42.883h9.036V489.681z"/>
	<path fill="#00AB97" d="M598.808,466.465v23.216h-9.029v-42.883h9.029v7.815c1.456-2.641,3.451-4.704,6.009-6.207
		c2.549-1.518,5.303-2.261,8.27-2.261c4.825,0,8.74,1.487,11.715,4.431c2.988,2.959,4.491,7.238,4.491,12.822v26.282h-9.029V466.13
		c0-7.891-3.292-11.836-9.848-11.836c-3.11,0-5.835,1.031-8.148,3.096C599.961,459.469,598.808,462.488,598.808,466.465"/>
	<path fill="#00AB97" d="M676.682,446.798v37.404c0,7.571-2.048,13.264-6.161,17.04c-4.111,3.795-9.393,5.692-15.856,5.692
		c-6.427,0-12.261-2.019-17.481-6.041l4.271-6.858c4.196,3.172,8.43,4.75,12.693,4.75c4.271,0,7.663-1.093,10.167-3.293
		c2.496-2.215,3.748-5.735,3.748-10.575v-5.479c-1.351,2.518-3.277,4.552-5.767,6.054c-2.488,1.502-5.303,2.246-8.437,2.246
		c-5.69,0-10.364-1.987-14.021-5.948c-3.656-3.99-5.478-8.923-5.478-14.84c0-5.903,1.821-10.866,5.478-14.842
		c3.657-3.976,8.315-5.963,13.991-5.963c5.675,0,10.288,2.337,13.831,7.011v-6.358H676.682z M643.237,466.586
		c0,3.521,1.077,6.556,3.263,9.104c2.17,2.55,5.099,3.824,8.785,3.824c3.673,0,6.654-1.229,8.945-3.703
		c2.284-2.475,3.43-5.555,3.43-9.226c0-3.688-1.16-6.799-3.482-9.363c-2.299-2.534-5.28-3.824-8.938-3.824
		c-3.664,0-6.57,1.32-8.74,3.946C644.314,459.984,643.237,463.065,643.237,466.586"/>
	<rect x="166.293" y="141.98" fill="#00AB97" width="298.373" height="24.112"/>
	<path fill="#00AB97" d="M399.621,109.788c0,1.123-0.892,2.041-2.018,2.048h-8.138c-1.119,0-2.033-0.911-2.033-2.048v-8.125
		c0-1.123,0.915-2.041,2.033-2.041h8.138c1.126,0.015,2.018,0.925,2.018,2.041V109.788z M399.621,131.987
		c0,1.131-0.892,2.026-2.018,2.034h-8.138c-1.119,0-2.033-0.903-2.033-2.034v-8.118c0-1.139,0.915-2.057,2.033-2.057h8.138
		c1.126,0.023,2.018,0.926,2.018,2.057V131.987z M434.985,111.275H412.03V92.034c0-1.639-1.321-2.959-2.963-2.959H377.99
		c-1.631,0-2.952,1.313-2.952,2.944v0.016v52.548c0,1.624,1.298,2.952,2.929,2.959h0.023h31.077c1.642,0,2.963-1.32,2.963-2.959
		v-17.906h11.1v17.906c0,1.639,1.332,2.959,2.963,2.959h8.893c1.601,0,2.943-1.305,2.943-2.936v-0.023v-30.341
		c0.015-1.624-1.305-2.944-2.929-2.966H434.985z"/>
	<path fill="#00AB97" d="M250.427,213.056c1.393-0.159,2.785-0.364,4.127-0.629c0.565-0.106,1.104-0.235,1.639-0.349
		c1.297-0.297,2.565-0.615,3.816-0.995c0.573-0.152,1.108-0.326,1.677-0.5c1.188-0.402,2.345-0.835,3.505-1.29
		c0.58-0.235,1.172-0.456,1.745-0.705c1.013-0.448,1.992-0.941,2.955-1.426c0.69-0.35,1.389-0.676,2.056-1.04
		c0.25-0.137,0.474-0.296,0.717-0.448c8.593-4.955,15.77-11.996,21.084-20.379c5.626-9.089,8.941-19.78,8.941-31.251
		c0-11.426-3.285-22.071-8.854-31.13c-5.322-8.421-12.519-15.5-21.118-20.492c-0.267-0.145-0.513-0.319-0.778-0.463
		c-0.661-0.364-1.351-0.683-2.026-1.024c-0.986-0.501-1.965-1.001-2.978-1.442c-0.572-0.243-1.165-0.47-1.745-0.698
		c-1.161-0.463-2.333-0.902-3.52-1.297c-0.554-0.174-1.089-0.35-1.647-0.508c-1.267-0.372-2.535-0.698-3.839-0.979
		c-0.527-0.129-1.066-0.25-1.624-0.364c-1.351-0.258-2.743-0.463-4.142-0.623c-0.49-0.061-0.995-0.152-1.499-0.205
		c-1.889-0.182-3.797-0.288-5.74-0.288c-30.683,0-56.141,23.527-59.203,53.436c-0.193,1.996-0.311,4.029-0.311,6.078
		c0,2.049,0.118,4.066,0.311,6.077c3.07,29.901,28.52,53.429,59.203,53.429c1.942,0,3.851-0.113,5.74-0.295
		C249.425,213.208,249.93,213.117,250.427,213.056 M208.057,154.043c0-19.333,15.808-35.136,35.125-35.136
		c19.329,0,35.133,15.804,35.133,35.136c0,19.324-15.804,35.121-35.133,35.121C223.865,189.165,208.057,173.368,208.057,154.043"/>
	<path fill="#FFFFFF" d="M14.569,254.452h39.878v20.736h0.527c4.26-7.975,9.309-13.96,15.159-17.959
		c5.842-3.976,13.198-5.979,22.071-5.979c2.291,0,4.602,0.099,6.908,0.281c2.299,0.175,4.427,0.523,6.361,1.062v36.418
		c-2.818-0.888-5.607-1.54-8.357-1.995c-2.75-0.447-5.625-0.667-8.642-0.667c-7.629,0-13.641,1.07-18.077,3.194
		c-4.431,2.124-7.848,5.098-10.242,8.915c-2.375,3.808-3.945,8.376-4.651,13.683c-0.701,5.312-1.058,11.168-1.058,17.542v53.975
		H14.569V254.452z"/>
	<path fill="#FFFFFF" d="M97.25,319.046c0-10.263,1.858-19.572,5.587-27.91c3.714-8.33,8.809-15.462,15.288-21.404
		c6.464-5.925,14.079-10.5,22.864-13.679c8.774-3.194,18.119-4.803,28.05-4.803c9.928,0,19.275,1.609,28.038,4.803
		c8.786,3.179,16.399,7.754,22.872,13.679c6.471,5.941,11.555,13.074,15.284,21.404c3.722,8.338,5.592,17.647,5.592,27.91
		c0,10.288-1.871,19.589-5.592,27.92c-3.729,8.346-8.813,15.463-15.284,21.411c-6.472,5.933-14.086,10.501-22.872,13.688
		c-8.763,3.187-18.11,4.795-28.038,4.795c-9.932,0-19.276-1.608-28.05-4.795c-8.785-3.187-16.399-7.755-22.864-13.688
		c-6.479-5.948-11.574-13.065-15.288-21.411C99.108,338.635,97.25,329.334,97.25,319.046 M137.132,319.046
		c0,9.741,2.78,17.647,8.379,23.672c5.581,6.023,13.426,9.043,23.528,9.043c10.098,0,17.939-3.02,23.524-9.043
		c5.587-6.024,8.376-13.931,8.376-23.672c0-9.731-2.789-17.63-8.376-23.653c-5.584-6.017-13.426-9.036-23.524-9.036
		c-10.103,0-17.947,3.019-23.528,9.036C139.912,301.416,137.132,309.314,137.132,319.046"/>
	<path fill="#FFFFFF" d="M231.307,319.046c0-10.263,1.859-19.572,5.581-27.91c3.722-8.33,8.809-15.462,15.296-21.404
		c6.457-5.925,14.085-10.5,22.856-13.679c8.774-3.194,18.11-4.803,28.042-4.803c9.928,0,19.283,1.609,28.054,4.803
		c8.779,3.179,16.384,7.754,22.864,13.679c6.457,5.941,11.555,13.074,15.285,21.404c3.721,8.338,5.591,17.647,5.591,27.91
		c0,10.288-1.871,19.589-5.591,27.92c-3.729,8.346-8.828,15.463-15.285,21.411c-6.479,5.933-14.085,10.501-22.864,13.688
		c-8.771,3.187-18.126,4.795-28.054,4.795c-9.932,0-19.268-1.608-28.042-4.795c-8.771-3.187-16.4-7.755-22.856-13.688
		c-6.487-5.948-11.574-13.065-15.296-21.411C233.167,338.635,231.307,329.334,231.307,319.046 M271.182,319.046
		c0,9.741,2.795,17.647,8.38,23.672c5.581,6.023,13.425,9.043,23.52,9.043c10.099,0,17.956-3.02,23.532-9.043
		c5.588-6.024,8.384-13.931,8.384-23.672c0-9.731-2.796-17.63-8.384-23.653c-5.576-6.017-13.433-9.036-23.532-9.036
		c-10.095,0-17.939,3.019-23.52,9.036C273.978,301.416,271.182,309.314,271.182,319.046"/>
	<path fill="#FFFFFF" d="M371.67,254.452h38.296v17.556h0.52c1.236-2.489,3.016-4.969,5.322-7.45
		c2.299-2.489,5.049-4.689,8.244-6.646c3.187-1.958,6.813-3.543,10.903-4.78c4.066-1.251,8.497-1.882,13.277-1.882
		c9.06,0,17.071,1.882,24.074,5.584c7.003,3.726,12.275,9.583,15.818,17.549c4.606-8.323,10.183-14.264,16.738-17.815
		c6.562-3.543,14.62-5.319,24.188-5.319c8.687,0,16.017,1.48,21.949,4.401c5.94,2.929,10.63,6.913,14.09,11.95
		c3.444,5.061,5.926,10.993,7.436,17.83c1.518,6.829,2.276,14.127,2.276,21.919v76.308h-39.879v-75.238
		c0-6.023-1.289-11.206-3.854-15.561c-2.579-4.34-7.146-6.509-13.702-6.509c-4.605,0-8.467,0.751-11.563,2.26
		c-3.104,1.518-5.584,3.597-7.451,6.26c-1.852,2.648-3.187,5.75-3.982,9.294c-0.805,3.543-1.191,7.279-1.191,11.18v68.314H453.3
		v-68.314c0-2.322-0.105-5.145-0.272-8.509c-0.175-3.385-0.804-6.563-1.852-9.583c-1.077-3.012-2.807-5.584-5.189-7.708
		c-2.397-2.125-5.902-3.194-10.501-3.194c-5.14,0-9.306,0.933-12.507,2.792c-3.184,1.866-5.623,4.347-7.311,7.442
		c-1.691,3.111-2.788,6.602-3.315,10.509c-0.531,3.896-0.8,7.979-0.8,12.227v64.339H371.67V254.452z"/>
	<path fill="#FFFFFF" d="M595.287,328.924c0,5.539,1.214,10.607,3.618,15.158c2.436,4.568,5.592,8.453,9.537,11.67
		c3.93,3.217,8.498,5.736,13.68,7.511c5.182,1.791,10.554,2.687,16.107,2.687c7.496,0,14.021-1.745,19.567-5.235
		c5.539-3.49,10.646-8.088,15.296-13.823l18.247,13.96c-13.422,17.359-32.2,26.023-56.342,26.023
		c-10.016,0-19.09-1.699-27.223-5.099c-8.148-3.398-15.031-8.087-20.652-14.082c-5.645-5.993-9.978-13.05-13.02-21.197
		c-3.051-8.134-4.553-16.936-4.553-26.419c0-9.469,1.639-18.289,4.947-26.422c3.308-8.133,7.875-15.197,13.688-21.191
		c5.803-5.993,12.746-10.683,20.789-14.089c8.049-3.392,16.805-5.098,26.296-5.098c11.26,0,20.789,1.965,28.559,5.91
		c7.784,3.938,14.188,9.082,19.188,15.417c5.001,6.358,8.627,13.505,10.873,21.457c2.229,7.966,3.346,16.066,3.346,24.291v8.573
		H595.287z M671.492,309.61c-0.197-5.356-1.04-10.272-2.564-14.742c-1.503-4.476-3.779-8.36-6.836-11.684
		c-3.043-3.3-6.852-5.902-11.403-7.77c-4.561-1.881-9.879-2.814-15.949-2.814c-5.902,0-11.32,1.107-16.236,3.346
		c-4.932,2.246-9.089,5.144-12.473,8.717c-3.399,3.566-6.039,7.557-7.921,11.943c-1.882,4.393-2.822,8.71-2.822,13.004H671.492z"/>
	<path fill="#FFFFFF" d="M693.206,320.077c0-9.302,1.745-17.978,5.235-26.028c3.49-8.035,8.27-15.098,14.355-21.184
		c6.077-6.078,13.224-10.873,21.471-14.355c8.209-3.49,17.064-5.227,26.54-5.227c9.469,0,18.331,1.736,26.556,5.227
		c8.239,3.482,15.371,8.277,21.472,14.355c6.069,6.085,10.865,13.149,14.348,21.184c3.489,8.05,5.227,16.726,5.227,26.028
		s-1.737,18.027-5.227,26.161c-3.482,8.148-8.278,15.204-14.348,21.198c-6.101,5.979-13.232,10.713-21.472,14.218
		c-8.225,3.476-17.087,5.22-26.556,5.22c-9.476,0-18.331-1.744-26.54-5.22c-8.247-3.505-15.394-8.239-21.471-14.218
		c-6.086-5.994-10.865-13.05-14.355-21.198C694.951,338.104,693.206,329.379,693.206,320.077 M718.957,320.077
		c0,6.435,0.986,12.397,2.959,17.83c1.958,5.479,4.728,10.12,8.309,13.96c3.573,3.854,7.958,6.89,13.148,9.135
		c5.174,2.23,11.001,3.339,17.435,3.339s12.245-1.108,17.451-3.339c5.174-2.245,9.56-5.28,13.134-9.135
		c3.565-3.84,6.335-8.481,8.322-13.96c1.958-5.433,2.951-11.396,2.951-17.83c0-6.434-0.993-12.379-2.951-17.834
		c-1.987-5.462-4.757-10.106-8.322-13.96c-3.574-3.839-7.96-6.889-13.134-9.12c-5.206-2.231-11.018-3.346-17.451-3.346
		s-12.261,1.115-17.435,3.346c-5.19,2.23-9.575,5.281-13.148,9.12c-3.581,3.854-6.351,8.498-8.309,13.96
		C719.943,307.698,718.957,313.644,718.957,320.077"/>
</g>
</svg>
